<svg width="100%" height="100%" version="1.1" xmlns="http://www.w3.org/2000/svg"><pattern id="spaciousDarkModeGalacticPattern" patternUnits="userSpaceOnUse" width="300" height="300"><rect width="300" height="300" fill="#0d0d0d" /><circle cx="1" cy="154" r="1" fill="url(#planetGradient)" /><circle cx="109" cy="243" r="2" fill="url(#planetGradient)" /><circle cx="153" cy="205" r="3" fill="url(#starGradient)" /><circle cx="46" cy="24" r="2" fill="url(#starGradient)" /><circle cx="89" cy="89" r="2" fill="url(#starGradient)" /><circle cx="21" cy="58" r="1" fill="url(#starGradient)" /><circle cx="249" cy="111" r="2" fill="url(#starGradient)" /><circle cx="55" cy="28" r="3" fill="url(#starGradient)" /><circle cx="229" cy="50" r="2" fill="url(#planetGradient)" /><circle cx="290" cy="210" r="1" fill="url(#planetGradient)" /><circle cx="130" cy="180" r="3" fill="url(#starGradient)" /><circle cx="12" cy="29" r="1" fill="url(#planetGradient)" /><circle cx="193" cy="286" r="1" fill="url(#planetGradient)" /><circle cx="73" cy="86" r="2" fill="url(#starGradient)" /><circle cx="146" cy="128" r="1" fill="url(#planetGradient)" /><circle cx="49" cy="246" r="3" fill="url(#planetGradient)" /><circle cx="43" cy="153" r="3" fill="url(#starGradient)" /><circle cx="202" cy="125" r="3" fill="url(#starGradient)" /><circle cx="230" cy="82" r="2" fill="url(#planetGradient)" /><circle cx="163" cy="144" r="3" fill="url(#planetGradient)" /><circle cx="279" cy="146" r="2" fill="url(#planetGradient)" /><circle cx="38" cy="36" r="1" fill="url(#planetGradient)" /><circle cx="86" cy="47" r="2" fill="url(#starGradient)" /><circle cx="206" cy="226" r="3" fill="url(#starGradient)" /><circle cx="205" cy="19" r="1" fill="url(#starGradient)" /><circle cx="156" cy="57" r="2" fill="url(#starGradient)" /><circle cx="244" cy="247" r="1" fill="url(#starGradient)" /><circle cx="200" cy="200" r="3" fill="url(#planetGradient)" /><circle cx="191" cy="203" r="2" fill="url(#planetGradient)" /><circle cx="1" cy="207" r="3" fill="url(#starGradient)" /><circle cx="139" cy="26" r="1" fill="url(#starGradient)" /><circle cx="175" cy="280" r="2" fill="url(#planetGradient)" /><circle cx="1" cy="19" r="2" fill="url(#planetGradient)" /><circle cx="58" cy="82" r="3" fill="url(#planetGradient)" /><circle cx="238" cy="207" r="3" fill="url(#planetGradient)" /><circle cx="71" cy="278" r="1" fill="url(#starGradient)" /><circle cx="135" cy="158" r="2" fill="url(#planetGradient)" /><circle cx="147" cy="76" r="2" fill="url(#starGradient)" /><circle cx="280" cy="129" r="2" fill="url(#starGradient)" /><circle cx="235" cy="9" r="3" fill="url(#starGradient)" /><ellipse cx="238" cy="251" rx="25" ry="21" fill="url(#nebulaGradient)" /><ellipse cx="71" cy="211" rx="26" ry="31" fill="url(#nebulaGradient)" /></pattern><defs><radialGradient id="nebulaGradient"><stop offset="10%" style="stop-color:#303030;stop-opacity:0.6" /><stop offset="100%" style="stop-color:#0d0d0d;stop-opacity:0" /></radialGradient><radialGradient id="starGradient"><stop offset="0%" style="stop-color:#FFFFFF;stop-opacity:1" /><stop offset="100%" style="stop-color:#FFFFFF;stop-opacity:0" /></radialGradient><radialGradient id="planetGradient"><stop offset="0%" style="stop-color:#d4af37;stop-opacity:1" /><stop offset="100%" style="stop-color:#d4af37;stop-opacity:0" /></radialGradient></defs><rect width="100%" height="100%" fill="url(#spaciousDarkModeGalacticPattern)" /></svg>