<svg width="100%" height="100%" version="1.1" xmlns="http://www.w3.org/2000/svg"><pattern id="enhancedDarkModeGalacticPattern" patternUnits="userSpaceOnUse" width="300" height="300"><rect width="300" height="300" fill="#0d0d0d" /><circle cx="44" cy="202" r="1" fill="url(#planetGradient)" /><circle cx="36" cy="292" r="3" fill="url(#starGradient)" /><circle cx="263" cy="39" r="3" fill="url(#planetGradient)" /><circle cx="43" cy="31" r="3" fill="url(#starGradient)" /><circle cx="236" cy="166" r="1" fill="url(#planetGradient)" /><circle cx="49" cy="14" r="2" fill="url(#starGradient)" /><circle cx="116" cy="77" r="2" fill="url(#starGradient)" /><circle cx="47" cy="114" r="3" fill="url(#starGradient)" /><circle cx="99" cy="48" r="1" fill="url(#planetGradient)" /><circle cx="5" cy="104" r="2" fill="url(#starGradient)" /><circle cx="206" cy="110" r="1" fill="url(#starGradient)" /><circle cx="176" cy="132" r="2" fill="url(#planetGradient)" /><circle cx="235" cy="146" r="3" fill="url(#starGradient)" /><circle cx="150" cy="32" r="3" fill="url(#starGradient)" /><circle cx="74" cy="282" r="1" fill="url(#starGradient)" /><circle cx="168" cy="39" r="2" fill="url(#planetGradient)" /><circle cx="33" cy="127" r="1" fill="url(#planetGradient)" /><circle cx="30" cy="137" r="1" fill="url(#planetGradient)" /><circle cx="55" cy="215" r="1" fill="url(#planetGradient)" /><circle cx="134" cy="193" r="3" fill="url(#planetGradient)" /><circle cx="279" cy="84" r="1" fill="url(#planetGradient)" /><circle cx="287" cy="212" r="1" fill="url(#starGradient)" /><circle cx="253" cy="4" r="3" fill="url(#planetGradient)" /><circle cx="70" cy="148" r="1" fill="url(#starGradient)" /><circle cx="211" cy="273" r="3" fill="url(#planetGradient)" /><circle cx="152" cy="152" r="1" fill="url(#planetGradient)" /><circle cx="287" cy="148" r="3" fill="url(#starGradient)" /><circle cx="195" cy="138" r="3" fill="url(#starGradient)" /><circle cx="229" cy="7" r="3" fill="url(#starGradient)" /><circle cx="137" cy="63" r="3" fill="url(#starGradient)" /><circle cx="164" cy="177" r="3" fill="url(#planetGradient)" /><circle cx="147" cy="9" r="3" fill="url(#planetGradient)" /><circle cx="193" cy="114" r="3" fill="url(#planetGradient)" /><circle cx="23" cy="290" r="2" fill="url(#planetGradient)" /><circle cx="183" cy="43" r="1" fill="url(#starGradient)" /><circle cx="267" cy="152" r="1" fill="url(#planetGradient)" /><circle cx="35" cy="243" r="3" fill="url(#planetGradient)" /><circle cx="282" cy="142" r="2" fill="url(#planetGradient)" /><circle cx="117" cy="176" r="3" fill="url(#planetGradient)" /><circle cx="269" cy="82" r="3" fill="url(#planetGradient)" /><circle cx="279" cy="30" r="1" fill="url(#starGradient)" /><circle cx="30" cy="215" r="1" fill="url(#planetGradient)" /><circle cx="226" cy="190" r="1" fill="url(#planetGradient)" /><circle cx="96" cy="48" r="3" fill="url(#starGradient)" /><circle cx="289" cy="66" r="1" fill="url(#starGradient)" /><circle cx="50" cy="278" r="1" fill="url(#starGradient)" /><circle cx="88" cy="51" r="1" fill="url(#starGradient)" /><circle cx="130" cy="89" r="1" fill="url(#planetGradient)" /><circle cx="140" cy="9" r="3" fill="url(#planetGradient)" /><circle cx="263" cy="5" r="3" fill="url(#starGradient)" /><circle cx="181" cy="292" r="3" fill="url(#planetGradient)" /><circle cx="44" cy="175" r="2" fill="url(#starGradient)" /><circle cx="30" cy="18" r="3" fill="url(#starGradient)" /><circle cx="231" cy="106" r="3" fill="url(#planetGradient)" /><circle cx="286" cy="262" r="1" fill="url(#starGradient)" /><circle cx="259" cy="232" r="3" fill="url(#starGradient)" /><circle cx="189" cy="11" r="2" fill="url(#planetGradient)" /><circle cx="216" cy="279" r="3" fill="url(#starGradient)" /><circle cx="241" cy="68" r="3" fill="url(#planetGradient)" /><circle cx="68" cy="234" r="3" fill="url(#starGradient)" /><ellipse cx="55" cy="199" rx="22" ry="38" fill="url(#nebulaGradient)" /><ellipse cx="116" cy="190" rx="27" ry="22" fill="url(#nebulaGradient)" /><ellipse cx="205" cy="92" rx="25" ry="34" fill="url(#nebulaGradient)" /></pattern><defs><radialGradient id="nebulaGradient"><stop offset="10%" style="stop-color:#303030;stop-opacity:0.6" /><stop offset="100%" style="stop-color:#0d0d0d;stop-opacity:0" /></radialGradient><radialGradient id="starGradient"><stop offset="0%" style="stop-color:#FFFFFF;stop-opacity:1" /><stop offset="100%" style="stop-color:#FFFFFF;stop-opacity:0" /></radialGradient><radialGradient id="planetGradient"><stop offset="0%" style="stop-color:#d4af37;stop-opacity:1" /><stop offset="100%" style="stop-color:#d4af37;stop-opacity:0" /></radialGradient></defs><rect width="100%" height="100%" fill="url(#enhancedDarkModeGalacticPattern)" /></svg>