<svg width="3791.1" height="99" viewBox="0 0 3791.1 99" xmlns="http://www.w3.org/2000/svg"><g id="svgGroup" stroke-linecap="round" fill-rule="evenodd" font-size="9pt" stroke="#000" stroke-width="0.25mm" fill="#000" style="stroke:#000;stroke-width:0.25mm;fill:#000"><path d="M 61.3 75.8 L 52.3 75.8 L 52.3 23.8 L 61 23.8 L 61 32.5 Q 63.8 28.3 68.1 25.45 A 17.205 17.205 0 0 1 77.302 22.609 A 20.858 20.858 0 0 1 77.9 22.6 A 20.994 20.994 0 0 1 82.317 23.04 Q 85.303 23.682 87.585 25.263 A 13.128 13.128 0 0 1 88.05 25.6 A 15.751 15.751 0 0 1 93.498 33.289 A 19.154 19.154 0 0 1 93.6 33.6 Q 96.7 29 100.95 25.8 A 15.669 15.669 0 0 1 107.741 22.916 A 21.446 21.446 0 0 1 111.5 22.6 A 21.437 21.437 0 0 1 116.388 23.122 Q 119.974 23.962 122.463 26.151 A 12.994 12.994 0 0 1 124.15 27.95 A 18.992 18.992 0 0 1 127.561 35.222 Q 128.3 38.272 128.3 41.9 L 128.3 75.8 L 119.3 75.8 L 119.3 42.6 A 19.042 19.042 0 0 0 118.963 38.911 Q 118.527 36.705 117.528 34.961 A 10.982 10.982 0 0 0 116.8 33.85 A 7.974 7.974 0 0 0 110.987 30.554 A 10.678 10.678 0 0 0 109.9 30.5 A 11.926 11.926 0 0 0 103.141 32.627 A 15.996 15.996 0 0 0 101.55 33.85 Q 97.7 37.2 94.8 41.7 L 94.8 75.8 L 85.8 75.8 L 85.8 42.6 A 19.042 19.042 0 0 0 85.463 38.911 Q 85.027 36.705 84.028 34.961 A 10.982 10.982 0 0 0 83.3 33.85 A 7.974 7.974 0 0 0 77.487 30.554 A 10.678 10.678 0 0 0 76.4 30.5 A 12.02 12.02 0 0 0 70.081 32.328 A 16.244 16.244 0 0 0 68.1 33.75 Q 64.2 37 61.3 41.4 L 61.3 75.8 Z M 1087.8 75.8 L 1078.8 75.8 L 1078.8 23.8 L 1087.5 23.8 L 1087.5 32.5 Q 1090.3 28.3 1094.6 25.45 A 17.205 17.205 0 0 1 1103.802 22.609 A 20.858 20.858 0 0 1 1104.4 22.6 A 20.994 20.994 0 0 1 1108.817 23.04 Q 1111.803 23.682 1114.085 25.263 A 13.128 13.128 0 0 1 1114.55 25.6 A 15.751 15.751 0 0 1 1119.998 33.289 A 19.154 19.154 0 0 1 1120.1 33.6 Q 1123.2 29 1127.45 25.8 A 15.669 15.669 0 0 1 1134.241 22.916 A 21.446 21.446 0 0 1 1138 22.6 A 21.437 21.437 0 0 1 1142.888 23.122 Q 1146.474 23.962 1148.963 26.151 A 12.994 12.994 0 0 1 1150.65 27.95 A 18.992 18.992 0 0 1 1154.061 35.222 Q 1154.8 38.272 1154.8 41.9 L 1154.8 75.8 L 1145.8 75.8 L 1145.8 42.6 A 19.042 19.042 0 0 0 1145.463 38.911 Q 1145.027 36.705 1144.028 34.961 A 10.982 10.982 0 0 0 1143.3 33.85 A 7.974 7.974 0 0 0 1137.487 30.554 A 10.678 10.678 0 0 0 1136.4 30.5 A 11.926 11.926 0 0 0 1129.641 32.627 A 15.996 15.996 0 0 0 1128.05 33.85 Q 1124.2 37.2 1121.3 41.7 L 1121.3 75.8 L 1112.3 75.8 L 1112.3 42.6 A 19.042 19.042 0 0 0 1111.963 38.911 Q 1111.527 36.705 1110.528 34.961 A 10.982 10.982 0 0 0 1109.8 33.85 A 7.974 7.974 0 0 0 1103.987 30.554 A 10.678 10.678 0 0 0 1102.9 30.5 A 12.02 12.02 0 0 0 1096.581 32.328 A 16.244 16.244 0 0 0 1094.6 33.75 Q 1090.7 37 1087.8 41.4 L 1087.8 75.8 Z M 2749.3 75.8 L 2740.3 75.8 L 2740.3 23.8 L 2749 23.8 L 2749 32.5 Q 2751.8 28.3 2756.1 25.45 A 17.205 17.205 0 0 1 2765.302 22.609 A 20.858 20.858 0 0 1 2765.9 22.6 A 20.994 20.994 0 0 1 2770.317 23.04 Q 2773.303 23.682 2775.585 25.263 A 13.128 13.128 0 0 1 2776.05 25.6 A 15.751 15.751 0 0 1 2781.498 33.289 A 19.154 19.154 0 0 1 2781.6 33.6 Q 2784.7 29 2788.95 25.8 A 15.669 15.669 0 0 1 2795.741 22.916 A 21.446 21.446 0 0 1 2799.5 22.6 A 21.437 21.437 0 0 1 2804.388 23.122 Q 2807.974 23.962 2810.463 26.151 A 12.994 12.994 0 0 1 2812.15 27.95 A 18.992 18.992 0 0 1 2815.561 35.222 Q 2816.3 38.272 2816.3 41.9 L 2816.3 75.8 L 2807.3 75.8 L 2807.3 42.6 A 19.042 19.042 0 0 0 2806.963 38.911 Q 2806.527 36.705 2805.528 34.961 A 10.982 10.982 0 0 0 2804.8 33.85 A 7.974 7.974 0 0 0 2798.987 30.554 A 10.678 10.678 0 0 0 2797.9 30.5 A 11.926 11.926 0 0 0 2791.141 32.627 A 15.996 15.996 0 0 0 2789.55 33.85 Q 2785.7 37.2 2782.8 41.7 L 2782.8 75.8 L 2773.8 75.8 L 2773.8 42.6 A 19.042 19.042 0 0 0 2773.463 38.911 Q 2773.027 36.705 2772.028 34.961 A 10.982 10.982 0 0 0 2771.3 33.85 A 7.974 7.974 0 0 0 2765.487 30.554 A 10.678 10.678 0 0 0 2764.4 30.5 A 12.02 12.02 0 0 0 2758.081 32.328 A 16.244 16.244 0 0 0 2756.1 33.75 Q 2752.2 37 2749.3 41.4 L 2749.3 75.8 Z M 3628.9 75.8 L 3619.9 75.8 L 3619.9 23.8 L 3628.6 23.8 L 3628.6 32.5 Q 3631.4 28.3 3635.7 25.45 A 17.205 17.205 0 0 1 3644.902 22.609 A 20.858 20.858 0 0 1 3645.5 22.6 A 20.994 20.994 0 0 1 3649.917 23.04 Q 3652.903 23.682 3655.185 25.263 A 13.128 13.128 0 0 1 3655.65 25.6 A 15.751 15.751 0 0 1 3661.098 33.289 A 19.154 19.154 0 0 1 3661.2 33.6 Q 3664.3 29 3668.55 25.8 A 15.669 15.669 0 0 1 3675.341 22.916 A 21.446 21.446 0 0 1 3679.1 22.6 A 21.437 21.437 0 0 1 3683.988 23.122 Q 3687.574 23.962 3690.063 26.151 A 12.994 12.994 0 0 1 3691.75 27.95 A 18.992 18.992 0 0 1 3695.161 35.222 Q 3695.9 38.272 3695.9 41.9 L 3695.9 75.8 L 3686.9 75.8 L 3686.9 42.6 A 19.042 19.042 0 0 0 3686.563 38.911 Q 3686.127 36.705 3685.128 34.961 A 10.982 10.982 0 0 0 3684.4 33.85 A 7.974 7.974 0 0 0 3678.587 30.554 A 10.678 10.678 0 0 0 3677.5 30.5 A 11.926 11.926 0 0 0 3670.741 32.627 A 15.996 15.996 0 0 0 3669.15 33.85 Q 3665.3 37.2 3662.4 41.7 L 3662.4 75.8 L 3653.4 75.8 L 3653.4 42.6 A 19.042 19.042 0 0 0 3653.063 38.911 Q 3652.627 36.705 3651.628 34.961 A 10.982 10.982 0 0 0 3650.9 33.85 A 7.974 7.974 0 0 0 3645.087 30.554 A 10.678 10.678 0 0 0 3644 30.5 A 12.02 12.02 0 0 0 3637.681 32.328 A 16.244 16.244 0 0 0 3635.7 33.75 Q 3631.8 37 3628.9 41.4 L 3628.9 75.8 Z M 2261.8 75.8 L 2251.9 75.8 L 2235.5 26.2 L 2243.8 23.3 L 2257.2 65.6 L 2269.4 27.5 L 2279.1 27.5 L 2291 65.6 L 2304.3 23.3 L 2312.3 26.2 L 2295.8 75.8 L 2285.9 75.8 L 2273.9 37.1 L 2261.8 75.8 Z M 2679.3 75.8 L 2669.4 75.8 L 2653 26.2 L 2661.3 23.3 L 2674.7 65.6 L 2686.9 27.5 L 2696.6 27.5 L 2708.5 65.6 L 2721.8 23.3 L 2729.8 26.2 L 2713.3 75.8 L 2703.4 75.8 L 2691.4 37.1 L 2679.3 75.8 Z M 3224.4 75.8 L 3214.5 75.8 L 3198.1 26.2 L 3206.4 23.3 L 3219.8 65.6 L 3232 27.5 L 3241.7 27.5 L 3253.6 65.6 L 3266.9 23.3 L 3274.9 26.2 L 3258.4 75.8 L 3248.5 75.8 L 3236.5 37.1 L 3224.4 75.8 Z M 534.4 75.8 L 525.4 75.8 L 525.4 1.8 L 534.4 1.8 L 534.4 32.1 Q 537.2 28 541.5 25.3 A 17.572 17.572 0 0 1 548.625 22.791 A 22.595 22.595 0 0 1 551.6 22.6 A 23.225 23.225 0 0 1 556.665 23.118 Q 561.759 24.256 564.75 27.9 Q 568.875 32.926 569.088 41.009 A 33.764 33.764 0 0 1 569.1 41.9 L 569.1 75.8 L 560.1 75.8 L 560.1 42.9 Q 560.1 37.3 557.5 33.9 A 8.42 8.42 0 0 0 551.342 30.553 A 11.979 11.979 0 0 0 550.2 30.5 A 13.23 13.23 0 0 0 543.487 32.366 A 17.586 17.586 0 0 0 541.45 33.75 Q 537.3 37 534.4 41.4 L 534.4 75.8 Z M 767.9 75.8 L 758.9 75.8 L 758.9 1.8 L 767.9 1.8 L 767.9 32.1 Q 770.7 28 775 25.3 A 17.572 17.572 0 0 1 782.125 22.791 A 22.595 22.595 0 0 1 785.1 22.6 A 23.225 23.225 0 0 1 790.165 23.118 Q 795.259 24.256 798.25 27.9 Q 802.375 32.926 802.588 41.009 A 33.764 33.764 0 0 1 802.6 41.9 L 802.6 75.8 L 793.6 75.8 L 793.6 42.9 Q 793.6 37.3 791 33.9 A 8.42 8.42 0 0 0 784.842 30.553 A 11.979 11.979 0 0 0 783.7 30.5 A 13.23 13.23 0 0 0 776.987 32.366 A 17.586 17.586 0 0 0 774.95 33.75 Q 770.8 37 767.9 41.4 L 767.9 75.8 Z M 2995.4 75.8 L 2986.4 75.8 L 2986.4 1.8 L 2995.4 1.8 L 2995.4 32.1 Q 2998.2 28 3002.5 25.3 A 17.572 17.572 0 0 1 3009.625 22.791 A 22.595 22.595 0 0 1 3012.6 22.6 A 23.225 23.225 0 0 1 3017.665 23.118 Q 3022.759 24.256 3025.75 27.9 Q 3029.875 32.926 3030.088 41.009 A 33.764 33.764 0 0 1 3030.1 41.9 L 3030.1 75.8 L 3021.1 75.8 L 3021.1 42.9 Q 3021.1 37.3 3018.5 33.9 A 8.42 8.42 0 0 0 3012.342 30.553 A 11.979 11.979 0 0 0 3011.2 30.5 A 13.23 13.23 0 0 0 3004.487 32.366 A 17.586 17.586 0 0 0 3002.45 33.75 Q 2998.3 37 2995.4 41.4 L 2995.4 75.8 Z M 1259.6 70.8 L 1253.4 76.8 L 1226.5 49.1 L 1226.5 75.8 L 1217.5 75.8 L 1217.5 1.8 L 1226.5 1.8 L 1226.5 44.1 L 1250 22.8 L 1255.2 28.5 L 1235.1 46.3 L 1259.6 70.8 Z M 1497.4 70.8 L 1491.2 76.8 L 1464.3 49.1 L 1464.3 75.8 L 1455.3 75.8 L 1455.3 1.8 L 1464.3 1.8 L 1464.3 44.1 L 1487.8 22.8 L 1493 28.5 L 1472.9 46.3 L 1497.4 70.8 Z M 2602.7 70.8 L 2596.5 76.8 L 2569.6 49.1 L 2569.6 75.8 L 2560.6 75.8 L 2560.6 1.8 L 2569.6 1.8 L 2569.6 44.1 L 2593.1 22.8 L 2598.3 28.5 L 2578.2 46.3 L 2602.7 70.8 Z M 954.3 97 L 956.3 89.5 A 9.908 9.908 0 0 0 957.465 90.074 Q 958.288 90.419 959.3 90.7 A 13.514 13.514 0 0 0 961.579 91.117 A 17.358 17.358 0 0 0 963.3 91.2 Q 967.5 91.2 970.8 88.5 A 12.003 12.003 0 0 0 972.733 86.439 Q 974.481 84.128 976.141 80.275 A 58.58 58.58 0 0 0 977.1 77.9 L 979.4 71.9 L 974.6 71.9 L 954.3 26.2 L 962.3 22.6 L 981.7 65.9 L 996.8 23 L 1005.1 26.2 L 986 78.4 A 71.728 71.728 0 0 1 983.947 83.486 Q 982.845 85.926 981.678 87.914 A 30.86 30.86 0 0 1 979.7 90.9 A 24.268 24.268 0 0 1 976.822 94.111 Q 974.908 95.879 972.805 96.918 A 14.737 14.737 0 0 1 972.2 97.2 Q 968.1 99 963.1 99 Q 960.1 99 957.85 98.4 Q 955.6 97.8 954.3 97 Z M 354.9 94.6 L 358.2 86.8 A 20.562 20.562 0 0 0 362.017 89.173 A 24.737 24.737 0 0 0 363.8 89.95 Q 366.559 91.028 370.359 91.176 A 31.788 31.788 0 0 0 371.6 91.2 A 21.701 21.701 0 0 0 376.121 90.757 Q 379.022 90.139 381.222 88.659 A 12.576 12.576 0 0 0 382.75 87.45 A 11.352 11.352 0 0 0 385.657 82.957 Q 386.8 79.856 386.8 75.5 L 386.8 69.1 Q 384.8 71.5 381.05 73.65 Q 377.3 75.8 372.1 75.8 Q 366.2 75.8 360.9 72.75 A 22.236 22.236 0 0 1 353.608 65.912 A 27.437 27.437 0 0 1 352.3 63.8 A 25.181 25.181 0 0 1 349.587 56.176 A 35.033 35.033 0 0 1 349 49.6 A 32.06 32.06 0 0 1 349.917 41.792 A 26.682 26.682 0 0 1 352.25 35.7 A 25.706 25.706 0 0 1 358.314 28.078 A 24.448 24.448 0 0 1 361 26.1 Q 366.5 22.6 373.1 22.6 A 22.366 22.366 0 0 1 377.92 23.101 A 18.715 18.715 0 0 1 381.1 24.1 A 25.705 25.705 0 0 1 384.928 26.068 A 20.998 20.998 0 0 1 387.3 27.8 L 387.3 23.8 L 395.5 23.8 L 395.5 74.6 Q 395.5 83.2 392.5 88.6 Q 389.5 94 384.15 96.5 A 25.811 25.811 0 0 1 377.546 98.521 A 35.243 35.243 0 0 1 371.6 99 Q 367 99 362.65 97.9 A 27.232 27.232 0 0 1 357.35 95.983 A 23.518 23.518 0 0 1 354.9 94.6 Z M 613.1 94.6 L 616.4 86.8 A 20.562 20.562 0 0 0 620.217 89.173 A 24.737 24.737 0 0 0 622 89.95 Q 624.759 91.028 628.559 91.176 A 31.788 31.788 0 0 0 629.8 91.2 A 21.701 21.701 0 0 0 634.321 90.757 Q 637.222 90.139 639.422 88.659 A 12.576 12.576 0 0 0 640.95 87.45 A 11.352 11.352 0 0 0 643.857 82.957 Q 645 79.856 645 75.5 L 645 69.1 Q 643 71.5 639.25 73.65 Q 635.5 75.8 630.3 75.8 Q 624.4 75.8 619.1 72.75 A 22.236 22.236 0 0 1 611.808 65.912 A 27.437 27.437 0 0 1 610.5 63.8 A 25.181 25.181 0 0 1 607.787 56.176 A 35.033 35.033 0 0 1 607.2 49.6 A 32.06 32.06 0 0 1 608.117 41.792 A 26.682 26.682 0 0 1 610.45 35.7 A 25.706 25.706 0 0 1 616.514 28.078 A 24.448 24.448 0 0 1 619.2 26.1 Q 624.7 22.6 631.3 22.6 A 22.366 22.366 0 0 1 636.12 23.101 A 18.715 18.715 0 0 1 639.3 24.1 A 25.705 25.705 0 0 1 643.128 26.068 A 20.998 20.998 0 0 1 645.5 27.8 L 645.5 23.8 L 653.7 23.8 L 653.7 74.6 Q 653.7 83.2 650.7 88.6 Q 647.7 94 642.35 96.5 A 25.811 25.811 0 0 1 635.746 98.521 A 35.243 35.243 0 0 1 629.8 99 Q 625.2 99 620.85 97.9 A 27.232 27.232 0 0 1 615.55 95.983 A 23.518 23.518 0 0 1 613.1 94.6 Z M 1842.7 75.8 L 1833.7 75.8 L 1833.7 23.8 L 1842.4 23.8 L 1842.4 32.5 Q 1845.2 28.3 1849.55 25.45 A 17.316 17.316 0 0 1 1856.656 22.825 A 22.629 22.629 0 0 1 1859.9 22.6 A 23.225 23.225 0 0 1 1864.965 23.118 Q 1870.059 24.256 1873.05 27.9 Q 1877.175 32.926 1877.388 41.009 A 33.764 33.764 0 0 1 1877.4 41.9 L 1877.4 75.8 L 1868.4 75.8 L 1868.4 42.9 A 19.265 19.265 0 0 0 1868.058 39.159 Q 1867.619 36.945 1866.619 35.197 A 10.966 10.966 0 0 0 1865.75 33.9 A 8.579 8.579 0 0 0 1859.473 30.547 A 12.061 12.061 0 0 0 1858.4 30.5 A 13.122 13.122 0 0 0 1851.551 32.464 A 17.353 17.353 0 0 0 1849.7 33.75 Q 1845.6 37 1842.7 41.4 L 1842.7 75.8 Z M 2054.1 75.8 L 2045.1 75.8 L 2045.1 23.8 L 2053.8 23.8 L 2053.8 32.5 Q 2056.6 28.3 2060.95 25.45 A 17.316 17.316 0 0 1 2068.056 22.825 A 22.629 22.629 0 0 1 2071.3 22.6 A 23.225 23.225 0 0 1 2076.365 23.118 Q 2081.459 24.256 2084.45 27.9 Q 2088.575 32.926 2088.788 41.009 A 33.764 33.764 0 0 1 2088.8 41.9 L 2088.8 75.8 L 2079.8 75.8 L 2079.8 42.9 A 19.265 19.265 0 0 0 2079.458 39.159 Q 2079.019 36.945 2078.019 35.197 A 10.966 10.966 0 0 0 2077.15 33.9 A 8.579 8.579 0 0 0 2070.873 30.547 A 12.061 12.061 0 0 0 2069.8 30.5 A 13.122 13.122 0 0 0 2062.951 32.464 A 17.353 17.353 0 0 0 2061.1 33.75 Q 2057 37 2054.1 41.4 L 2054.1 75.8 Z M 2331.8 75.8 L 2322.8 75.8 L 2322.8 23.8 L 2331.5 23.8 L 2331.5 32.5 Q 2334.3 28.3 2338.65 25.45 A 17.316 17.316 0 0 1 2345.756 22.825 A 22.629 22.629 0 0 1 2349 22.6 A 23.225 23.225 0 0 1 2354.065 23.118 Q 2359.159 24.256 2362.15 27.9 Q 2366.275 32.926 2366.488 41.009 A 33.764 33.764 0 0 1 2366.5 41.9 L 2366.5 75.8 L 2357.5 75.8 L 2357.5 42.9 A 19.265 19.265 0 0 0 2357.158 39.159 Q 2356.719 36.945 2355.719 35.197 A 10.966 10.966 0 0 0 2354.85 33.9 A 8.579 8.579 0 0 0 2348.573 30.547 A 12.061 12.061 0 0 0 2347.5 30.5 A 13.122 13.122 0 0 0 2340.651 32.464 A 17.353 17.353 0 0 0 2338.8 33.75 Q 2334.7 37 2331.8 41.4 L 2331.8 75.8 Z M 950.3 75.8 L 910.1 75.8 L 910.1 68.7 L 938.8 31.6 L 910.7 31.6 L 910.7 23.8 L 949.8 23.8 L 949.8 30.7 L 921.2 67.8 L 950.3 67.8 L 950.3 75.8 Z M 1568.2 75.8 L 1528 75.8 L 1528 68.7 L 1556.7 31.6 L 1528.6 31.6 L 1528.6 23.8 L 1567.7 23.8 L 1567.7 30.7 L 1539.1 67.8 L 1568.2 67.8 L 1568.2 75.8 Z M 749.9 70.9 L 743.1 76.7 L 725.6 55 L 708.3 76.5 L 701.9 70.9 L 720.4 49.4 L 702.6 28.8 L 709.6 22.7 L 725.7 43.5 L 741.5 23.1 L 748.2 28.8 L 730.9 49 L 749.9 70.9 Z M 193.7 71.6 L 197.5 64.1 A 18.557 18.557 0 0 0 200.644 66.226 Q 202.198 67.07 204.05 67.75 A 24.073 24.073 0 0 0 211.661 69.187 A 27.464 27.464 0 0 0 212.5 69.2 Q 217.892 69.2 220.735 67.485 A 7.738 7.738 0 0 0 220.95 67.35 Q 223.8 65.5 223.8 62.6 A 7.123 7.123 0 0 0 223.486 60.453 A 6.212 6.212 0 0 0 222.75 58.9 A 6.384 6.384 0 0 0 221.821 57.806 Q 220.807 56.834 219.134 55.881 A 22.3 22.3 0 0 0 218.9 55.75 A 28.462 28.462 0 0 0 216.906 54.757 Q 214.79 53.795 211.801 52.746 A 103.602 103.602 0 0 0 210.8 52.4 A 46.616 46.616 0 0 1 206.402 50.657 Q 204.288 49.683 202.612 48.595 A 19.335 19.335 0 0 1 199.85 46.45 A 11.324 11.324 0 0 1 196.556 40.454 A 16.794 16.794 0 0 1 196.2 36.9 Q 196.2 30.9 201.45 26.75 Q 205.854 23.269 213.108 22.708 A 37.527 37.527 0 0 1 216 22.6 A 40.794 40.794 0 0 1 220.446 22.831 Q 222.754 23.084 224.77 23.615 A 25.234 25.234 0 0 1 224.9 23.65 Q 228.8 24.7 231.9 26.3 L 229.4 33.7 Q 226.7 32.1 223.25 31.1 A 25.024 25.024 0 0 0 218.767 30.253 A 31.837 31.837 0 0 0 215.6 30.1 A 20.632 20.632 0 0 0 212.663 30.295 Q 209.577 30.74 207.7 32.2 A 9.322 9.322 0 0 0 206.342 33.473 Q 205.64 34.292 205.305 35.165 A 4.529 4.529 0 0 0 205 36.8 A 4.921 4.921 0 0 0 206.495 40.352 A 7.082 7.082 0 0 0 207.1 40.9 Q 209.165 42.572 215.098 44.534 A 84.459 84.459 0 0 0 215.3 44.6 A 67.753 67.753 0 0 1 220.362 46.498 Q 226.289 49.017 229.1 51.9 Q 233 55.9 233 61.9 Q 233 68.648 227.749 72.655 A 16.618 16.618 0 0 1 227.35 72.95 Q 222.61 76.347 215.162 76.895 A 40.423 40.423 0 0 1 212.2 77 Q 206.3 77 201.55 75.5 A 30.883 30.883 0 0 1 197.71 74.015 Q 195.729 73.084 194.148 71.936 A 18.229 18.229 0 0 1 193.7 71.6 Z M 240.5 71.6 L 244.3 64.1 A 18.557 18.557 0 0 0 247.444 66.226 Q 248.998 67.07 250.85 67.75 A 24.073 24.073 0 0 0 258.461 69.187 A 27.464 27.464 0 0 0 259.3 69.2 Q 264.692 69.2 267.535 67.485 A 7.738 7.738 0 0 0 267.75 67.35 Q 270.6 65.5 270.6 62.6 A 7.123 7.123 0 0 0 270.286 60.453 A 6.212 6.212 0 0 0 269.55 58.9 A 6.384 6.384 0 0 0 268.621 57.806 Q 267.607 56.834 265.934 55.881 A 22.3 22.3 0 0 0 265.7 55.75 A 28.462 28.462 0 0 0 263.706 54.757 Q 261.59 53.795 258.601 52.746 A 103.602 103.602 0 0 0 257.6 52.4 A 46.616 46.616 0 0 1 253.202 50.657 Q 251.088 49.683 249.412 48.595 A 19.335 19.335 0 0 1 246.65 46.45 A 11.324 11.324 0 0 1 243.356 40.454 A 16.794 16.794 0 0 1 243 36.9 Q 243 30.9 248.25 26.75 Q 252.654 23.269 259.908 22.708 A 37.527 37.527 0 0 1 262.8 22.6 A 40.794 40.794 0 0 1 267.246 22.831 Q 269.554 23.084 271.57 23.615 A 25.234 25.234 0 0 1 271.7 23.65 Q 275.6 24.7 278.7 26.3 L 276.2 33.7 Q 273.5 32.1 270.05 31.1 A 25.024 25.024 0 0 0 265.567 30.253 A 31.837 31.837 0 0 0 262.4 30.1 A 20.632 20.632 0 0 0 259.463 30.295 Q 256.377 30.74 254.5 32.2 A 9.322 9.322 0 0 0 253.142 33.473 Q 252.44 34.292 252.105 35.165 A 4.529 4.529 0 0 0 251.8 36.8 A 4.921 4.921 0 0 0 253.295 40.352 A 7.082 7.082 0 0 0 253.9 40.9 Q 255.965 42.572 261.898 44.534 A 84.459 84.459 0 0 0 262.1 44.6 A 67.753 67.753 0 0 1 267.162 46.498 Q 273.089 49.017 275.9 51.9 Q 279.8 55.9 279.8 61.9 Q 279.8 68.648 274.549 72.655 A 16.618 16.618 0 0 1 274.15 72.95 Q 269.41 76.347 261.962 76.895 A 40.423 40.423 0 0 1 259 77 Q 253.1 77 248.35 75.5 A 30.883 30.883 0 0 1 244.51 74.015 Q 242.529 73.084 240.948 71.936 A 18.229 18.229 0 0 1 240.5 71.6 Z M 1357.2 71.6 L 1361 64.1 A 18.557 18.557 0 0 0 1364.144 66.226 Q 1365.698 67.07 1367.55 67.75 A 24.073 24.073 0 0 0 1375.161 69.187 A 27.464 27.464 0 0 0 1376 69.2 Q 1381.392 69.2 1384.235 67.485 A 7.738 7.738 0 0 0 1384.45 67.35 Q 1387.3 65.5 1387.3 62.6 A 7.123 7.123 0 0 0 1386.986 60.453 A 6.212 6.212 0 0 0 1386.25 58.9 A 6.384 6.384 0 0 0 1385.321 57.806 Q 1384.307 56.834 1382.634 55.881 A 22.3 22.3 0 0 0 1382.4 55.75 A 28.462 28.462 0 0 0 1380.406 54.757 Q 1378.29 53.795 1375.301 52.746 A 103.602 103.602 0 0 0 1374.3 52.4 A 46.616 46.616 0 0 1 1369.902 50.657 Q 1367.788 49.683 1366.112 48.595 A 19.335 19.335 0 0 1 1363.35 46.45 A 11.324 11.324 0 0 1 1360.056 40.454 A 16.794 16.794 0 0 1 1359.7 36.9 Q 1359.7 30.9 1364.95 26.75 Q 1369.354 23.269 1376.608 22.708 A 37.527 37.527 0 0 1 1379.5 22.6 A 40.794 40.794 0 0 1 1383.946 22.831 Q 1386.254 23.084 1388.27 23.615 A 25.234 25.234 0 0 1 1388.4 23.65 Q 1392.3 24.7 1395.4 26.3 L 1392.9 33.7 Q 1390.2 32.1 1386.75 31.1 A 25.024 25.024 0 0 0 1382.267 30.253 A 31.837 31.837 0 0 0 1379.1 30.1 A 20.632 20.632 0 0 0 1376.163 30.295 Q 1373.077 30.74 1371.2 32.2 A 9.322 9.322 0 0 0 1369.842 33.473 Q 1369.14 34.292 1368.805 35.165 A 4.529 4.529 0 0 0 1368.5 36.8 A 4.921 4.921 0 0 0 1369.995 40.352 A 7.082 7.082 0 0 0 1370.6 40.9 Q 1372.665 42.572 1378.598 44.534 A 84.459 84.459 0 0 0 1378.8 44.6 A 67.753 67.753 0 0 1 1383.862 46.498 Q 1389.789 49.017 1392.6 51.9 Q 1396.5 55.9 1396.5 61.9 Q 1396.5 68.648 1391.249 72.655 A 16.618 16.618 0 0 1 1390.85 72.95 Q 1386.11 76.347 1378.662 76.895 A 40.423 40.423 0 0 1 1375.7 77 Q 1369.8 77 1365.05 75.5 A 30.883 30.883 0 0 1 1361.21 74.015 Q 1359.229 73.084 1357.648 71.936 A 18.229 18.229 0 0 1 1357.2 71.6 Z M 1404 71.6 L 1407.8 64.1 A 18.557 18.557 0 0 0 1410.944 66.226 Q 1412.498 67.07 1414.35 67.75 A 24.073 24.073 0 0 0 1421.961 69.187 A 27.464 27.464 0 0 0 1422.8 69.2 Q 1428.192 69.2 1431.035 67.485 A 7.738 7.738 0 0 0 1431.25 67.35 Q 1434.1 65.5 1434.1 62.6 A 7.123 7.123 0 0 0 1433.786 60.453 A 6.212 6.212 0 0 0 1433.05 58.9 A 6.384 6.384 0 0 0 1432.121 57.806 Q 1431.107 56.834 1429.434 55.881 A 22.3 22.3 0 0 0 1429.2 55.75 A 28.462 28.462 0 0 0 1427.206 54.757 Q 1425.09 53.795 1422.101 52.746 A 103.602 103.602 0 0 0 1421.1 52.4 A 46.616 46.616 0 0 1 1416.702 50.657 Q 1414.588 49.683 1412.912 48.595 A 19.335 19.335 0 0 1 1410.15 46.45 A 11.324 11.324 0 0 1 1406.856 40.454 A 16.794 16.794 0 0 1 1406.5 36.9 Q 1406.5 30.9 1411.75 26.75 Q 1416.154 23.269 1423.408 22.708 A 37.527 37.527 0 0 1 1426.3 22.6 A 40.794 40.794 0 0 1 1430.746 22.831 Q 1433.054 23.084 1435.07 23.615 A 25.234 25.234 0 0 1 1435.2 23.65 Q 1439.1 24.7 1442.2 26.3 L 1439.7 33.7 Q 1437 32.1 1433.55 31.1 A 25.024 25.024 0 0 0 1429.067 30.253 A 31.837 31.837 0 0 0 1425.9 30.1 A 20.632 20.632 0 0 0 1422.963 30.295 Q 1419.877 30.74 1418 32.2 A 9.322 9.322 0 0 0 1416.642 33.473 Q 1415.94 34.292 1415.605 35.165 A 4.529 4.529 0 0 0 1415.3 36.8 A 4.921 4.921 0 0 0 1416.795 40.352 A 7.082 7.082 0 0 0 1417.4 40.9 Q 1419.465 42.572 1425.398 44.534 A 84.459 84.459 0 0 0 1425.6 44.6 A 67.753 67.753 0 0 1 1430.662 46.498 Q 1436.589 49.017 1439.4 51.9 Q 1443.3 55.9 1443.3 61.9 Q 1443.3 68.648 1438.049 72.655 A 16.618 16.618 0 0 1 1437.65 72.95 Q 1432.91 76.347 1425.462 76.895 A 40.423 40.423 0 0 1 1422.5 77 Q 1416.6 77 1411.85 75.5 A 30.883 30.883 0 0 1 1408.01 74.015 Q 1406.029 73.084 1404.448 71.936 A 18.229 18.229 0 0 1 1404 71.6 Z M 1668.6 71.6 L 1672.4 64.1 A 18.557 18.557 0 0 0 1675.544 66.226 Q 1677.098 67.07 1678.95 67.75 A 24.073 24.073 0 0 0 1686.561 69.187 A 27.464 27.464 0 0 0 1687.4 69.2 Q 1692.792 69.2 1695.635 67.485 A 7.738 7.738 0 0 0 1695.85 67.35 Q 1698.7 65.5 1698.7 62.6 A 7.123 7.123 0 0 0 1698.386 60.453 A 6.212 6.212 0 0 0 1697.65 58.9 A 6.384 6.384 0 0 0 1696.721 57.806 Q 1695.707 56.834 1694.034 55.881 A 22.3 22.3 0 0 0 1693.8 55.75 A 28.462 28.462 0 0 0 1691.806 54.757 Q 1689.69 53.795 1686.701 52.746 A 103.602 103.602 0 0 0 1685.7 52.4 A 46.616 46.616 0 0 1 1681.302 50.657 Q 1679.188 49.683 1677.512 48.595 A 19.335 19.335 0 0 1 1674.75 46.45 A 11.324 11.324 0 0 1 1671.456 40.454 A 16.794 16.794 0 0 1 1671.1 36.9 Q 1671.1 30.9 1676.35 26.75 Q 1680.754 23.269 1688.008 22.708 A 37.527 37.527 0 0 1 1690.9 22.6 A 40.794 40.794 0 0 1 1695.346 22.831 Q 1697.654 23.084 1699.67 23.615 A 25.234 25.234 0 0 1 1699.8 23.65 Q 1703.7 24.7 1706.8 26.3 L 1704.3 33.7 Q 1701.6 32.1 1698.15 31.1 A 25.024 25.024 0 0 0 1693.667 30.253 A 31.837 31.837 0 0 0 1690.5 30.1 A 20.632 20.632 0 0 0 1687.563 30.295 Q 1684.477 30.74 1682.6 32.2 A 9.322 9.322 0 0 0 1681.242 33.473 Q 1680.54 34.292 1680.205 35.165 A 4.529 4.529 0 0 0 1679.9 36.8 A 4.921 4.921 0 0 0 1681.395 40.352 A 7.082 7.082 0 0 0 1682 40.9 Q 1684.065 42.572 1689.998 44.534 A 84.459 84.459 0 0 0 1690.2 44.6 A 67.753 67.753 0 0 1 1695.262 46.498 Q 1701.189 49.017 1704 51.9 Q 1707.9 55.9 1707.9 61.9 Q 1707.9 68.648 1702.649 72.655 A 16.618 16.618 0 0 1 1702.25 72.95 Q 1697.51 76.347 1690.062 76.895 A 40.423 40.423 0 0 1 1687.1 77 Q 1681.2 77 1676.45 75.5 A 30.883 30.883 0 0 1 1672.61 74.015 Q 1670.629 73.084 1669.048 71.936 A 18.229 18.229 0 0 1 1668.6 71.6 Z M 2607.2 71.6 L 2611 64.1 A 18.557 18.557 0 0 0 2614.144 66.226 Q 2615.698 67.07 2617.55 67.75 A 24.073 24.073 0 0 0 2625.161 69.187 A 27.464 27.464 0 0 0 2626 69.2 Q 2631.392 69.2 2634.235 67.485 A 7.738 7.738 0 0 0 2634.45 67.35 Q 2637.3 65.5 2637.3 62.6 A 7.123 7.123 0 0 0 2636.986 60.453 A 6.212 6.212 0 0 0 2636.25 58.9 A 6.384 6.384 0 0 0 2635.321 57.806 Q 2634.307 56.834 2632.634 55.881 A 22.3 22.3 0 0 0 2632.4 55.75 A 28.462 28.462 0 0 0 2630.406 54.757 Q 2628.29 53.795 2625.301 52.746 A 103.602 103.602 0 0 0 2624.3 52.4 A 46.616 46.616 0 0 1 2619.902 50.657 Q 2617.788 49.683 2616.112 48.595 A 19.335 19.335 0 0 1 2613.35 46.45 A 11.324 11.324 0 0 1 2610.056 40.454 A 16.794 16.794 0 0 1 2609.7 36.9 Q 2609.7 30.9 2614.95 26.75 Q 2619.354 23.269 2626.608 22.708 A 37.527 37.527 0 0 1 2629.5 22.6 A 40.794 40.794 0 0 1 2633.946 22.831 Q 2636.254 23.084 2638.27 23.615 A 25.234 25.234 0 0 1 2638.4 23.65 Q 2642.3 24.7 2645.4 26.3 L 2642.9 33.7 Q 2640.2 32.1 2636.75 31.1 A 25.024 25.024 0 0 0 2632.267 30.253 A 31.837 31.837 0 0 0 2629.1 30.1 A 20.632 20.632 0 0 0 2626.163 30.295 Q 2623.077 30.74 2621.2 32.2 A 9.322 9.322 0 0 0 2619.842 33.473 Q 2619.14 34.292 2618.805 35.165 A 4.529 4.529 0 0 0 2618.5 36.8 A 4.921 4.921 0 0 0 2619.995 40.352 A 7.082 7.082 0 0 0 2620.6 40.9 Q 2622.665 42.572 2628.598 44.534 A 84.459 84.459 0 0 0 2628.8 44.6 A 67.753 67.753 0 0 1 2633.862 46.498 Q 2639.789 49.017 2642.6 51.9 Q 2646.5 55.9 2646.5 61.9 Q 2646.5 68.648 2641.249 72.655 A 16.618 16.618 0 0 1 2640.85 72.95 Q 2636.11 76.347 2628.662 76.895 A 40.423 40.423 0 0 1 2625.7 77 Q 2619.8 77 2615.05 75.5 A 30.883 30.883 0 0 1 2611.21 74.015 Q 2609.229 73.084 2607.648 71.936 A 18.229 18.229 0 0 1 2607.2 71.6 Z M 3514.2 71.6 L 3518 64.1 A 18.557 18.557 0 0 0 3521.144 66.226 Q 3522.698 67.07 3524.55 67.75 A 24.073 24.073 0 0 0 3532.161 69.187 A 27.464 27.464 0 0 0 3533 69.2 Q 3538.392 69.2 3541.235 67.485 A 7.738 7.738 0 0 0 3541.45 67.35 Q 3544.3 65.5 3544.3 62.6 A 7.123 7.123 0 0 0 3543.986 60.453 A 6.212 6.212 0 0 0 3543.25 58.9 A 6.384 6.384 0 0 0 3542.321 57.806 Q 3541.307 56.834 3539.634 55.881 A 22.3 22.3 0 0 0 3539.4 55.75 A 28.462 28.462 0 0 0 3537.406 54.757 Q 3535.29 53.795 3532.301 52.746 A 103.602 103.602 0 0 0 3531.3 52.4 A 46.616 46.616 0 0 1 3526.902 50.657 Q 3524.788 49.683 3523.112 48.595 A 19.335 19.335 0 0 1 3520.35 46.45 A 11.324 11.324 0 0 1 3517.056 40.454 A 16.794 16.794 0 0 1 3516.7 36.9 Q 3516.7 30.9 3521.95 26.75 Q 3526.354 23.269 3533.608 22.708 A 37.527 37.527 0 0 1 3536.5 22.6 A 40.794 40.794 0 0 1 3540.946 22.831 Q 3543.254 23.084 3545.27 23.615 A 25.234 25.234 0 0 1 3545.4 23.65 Q 3549.3 24.7 3552.4 26.3 L 3549.9 33.7 Q 3547.2 32.1 3543.75 31.1 A 25.024 25.024 0 0 0 3539.267 30.253 A 31.837 31.837 0 0 0 3536.1 30.1 A 20.632 20.632 0 0 0 3533.163 30.295 Q 3530.077 30.74 3528.2 32.2 A 9.322 9.322 0 0 0 3526.842 33.473 Q 3526.14 34.292 3525.805 35.165 A 4.529 4.529 0 0 0 3525.5 36.8 A 4.921 4.921 0 0 0 3526.995 40.352 A 7.082 7.082 0 0 0 3527.6 40.9 Q 3529.665 42.572 3535.598 44.534 A 84.459 84.459 0 0 0 3535.8 44.6 A 67.753 67.753 0 0 1 3540.862 46.498 Q 3546.789 49.017 3549.6 51.9 Q 3553.5 55.9 3553.5 61.9 Q 3553.5 68.648 3548.249 72.655 A 16.618 16.618 0 0 1 3547.85 72.95 Q 3543.11 76.347 3535.662 76.895 A 40.423 40.423 0 0 1 3532.7 77 Q 3526.8 77 3522.05 75.5 A 30.883 30.883 0 0 1 3518.21 74.015 Q 3516.229 73.084 3514.648 71.936 A 18.229 18.229 0 0 1 3514.2 71.6 Z M 889.8 75.8 L 880.8 75.8 L 880.8 33.5 L 872.8 33.5 L 872.8 25.7 L 880.8 25.7 L 880.8 19.6 A 25.495 25.495 0 0 1 881.426 13.782 Q 882.534 9.052 885.602 5.803 A 16.387 16.387 0 0 1 885.7 5.7 A 16.367 16.367 0 0 1 896.104 0.725 A 22.463 22.463 0 0 1 898.5 0.6 A 29.982 29.982 0 0 1 902.01 0.795 Q 903.755 1.001 905.271 1.425 A 17.884 17.884 0 0 1 905.7 1.55 Q 908.8 2.5 911.6 3.9 L 908.9 11.5 Q 906.8 10.4 904.4 9.5 A 14.172 14.172 0 0 0 900.778 8.679 A 17.356 17.356 0 0 0 899.1 8.6 A 10.802 10.802 0 0 0 896.071 9.004 A 8.291 8.291 0 0 0 892.35 11.25 A 8.462 8.462 0 0 0 890.403 14.619 Q 889.8 16.52 889.8 19 L 889.8 25.7 L 905.2 25.7 L 905.2 33.5 L 889.8 33.5 L 889.8 75.8 Z M 1278.6 75.8 L 1269.6 75.8 L 1269.6 33.5 L 1261.6 33.5 L 1261.6 25.7 L 1269.6 25.7 L 1269.6 19.6 A 25.495 25.495 0 0 1 1270.226 13.782 Q 1271.334 9.052 1274.402 5.803 A 16.387 16.387 0 0 1 1274.5 5.7 A 16.367 16.367 0 0 1 1284.904 0.725 A 22.463 22.463 0 0 1 1287.3 0.6 A 29.982 29.982 0 0 1 1290.81 0.795 Q 1292.555 1.001 1294.071 1.425 A 17.884 17.884 0 0 1 1294.5 1.55 Q 1297.6 2.5 1300.4 3.9 L 1297.7 11.5 Q 1295.6 10.4 1293.2 9.5 A 14.172 14.172 0 0 0 1289.578 8.679 A 17.356 17.356 0 0 0 1287.9 8.6 A 10.802 10.802 0 0 0 1284.871 9.004 A 8.291 8.291 0 0 0 1281.15 11.25 A 8.462 8.462 0 0 0 1279.203 14.619 Q 1278.6 16.52 1278.6 19 L 1278.6 25.7 L 1294 25.7 L 1294 33.5 L 1278.6 33.5 L 1278.6 75.8 Z M 2841.8 75.8 L 2832.8 75.8 L 2832.8 33.5 L 2824.8 33.5 L 2824.8 25.7 L 2832.8 25.7 L 2832.8 19.6 A 25.495 25.495 0 0 1 2833.426 13.782 Q 2834.534 9.052 2837.602 5.803 A 16.387 16.387 0 0 1 2837.7 5.7 A 16.367 16.367 0 0 1 2848.104 0.725 A 22.463 22.463 0 0 1 2850.5 0.6 A 29.982 29.982 0 0 1 2854.01 0.795 Q 2855.755 1.001 2857.271 1.425 A 17.884 17.884 0 0 1 2857.7 1.55 Q 2860.8 2.5 2863.6 3.9 L 2860.9 11.5 Q 2858.8 10.4 2856.4 9.5 A 14.172 14.172 0 0 0 2852.778 8.679 A 17.356 17.356 0 0 0 2851.1 8.6 A 10.802 10.802 0 0 0 2848.071 9.004 A 8.291 8.291 0 0 0 2844.35 11.25 A 8.462 8.462 0 0 0 2842.403 14.619 Q 2841.8 16.52 2841.8 19 L 2841.8 25.7 L 2857.2 25.7 L 2857.2 33.5 L 2841.8 33.5 L 2841.8 75.8 Z M 3295.4 75.8 L 3286.4 75.8 L 3286.4 33.5 L 3278.4 33.5 L 3278.4 25.7 L 3286.4 25.7 L 3286.4 19.6 A 25.495 25.495 0 0 1 3287.026 13.782 Q 3288.134 9.052 3291.202 5.803 A 16.387 16.387 0 0 1 3291.3 5.7 A 16.367 16.367 0 0 1 3301.704 0.725 A 22.463 22.463 0 0 1 3304.1 0.6 A 29.982 29.982 0 0 1 3307.61 0.795 Q 3309.355 1.001 3310.871 1.425 A 17.884 17.884 0 0 1 3311.3 1.55 Q 3314.4 2.5 3317.2 3.9 L 3314.5 11.5 Q 3312.4 10.4 3310 9.5 A 14.172 14.172 0 0 0 3306.378 8.679 A 17.356 17.356 0 0 0 3304.7 8.6 A 10.802 10.802 0 0 0 3301.671 9.004 A 8.291 8.291 0 0 0 3297.95 11.25 A 8.462 8.462 0 0 0 3296.003 14.619 Q 3295.4 16.52 3295.4 19 L 3295.4 25.7 L 3310.8 25.7 L 3310.8 33.5 L 3295.4 33.5 L 3295.4 75.8 Z M 3434.1 75.8 L 3425.1 75.8 L 3425.1 33.5 L 3417.1 33.5 L 3417.1 25.7 L 3425.1 25.7 L 3425.1 19.6 A 25.495 25.495 0 0 1 3425.726 13.782 Q 3426.834 9.052 3429.902 5.803 A 16.387 16.387 0 0 1 3430 5.7 A 16.367 16.367 0 0 1 3440.404 0.725 A 22.463 22.463 0 0 1 3442.8 0.6 A 29.982 29.982 0 0 1 3446.31 0.795 Q 3448.055 1.001 3449.571 1.425 A 17.884 17.884 0 0 1 3450 1.55 Q 3453.1 2.5 3455.9 3.9 L 3453.2 11.5 Q 3451.1 10.4 3448.7 9.5 A 14.172 14.172 0 0 0 3445.078 8.679 A 17.356 17.356 0 0 0 3443.4 8.6 A 10.802 10.802 0 0 0 3440.371 9.004 A 8.291 8.291 0 0 0 3436.65 11.25 A 8.462 8.462 0 0 0 3434.703 14.619 Q 3434.1 16.52 3434.1 19 L 3434.1 25.7 L 3449.5 25.7 L 3449.5 33.5 L 3434.1 33.5 L 3434.1 75.8 Z M 2215.1 29 L 2215.1 1.8 L 2224.1 1.8 L 2224.1 63.2 A 12.15 12.15 0 0 0 2224.202 64.836 Q 2224.534 67.27 2225.95 68.15 Q 2227.8 69.3 2230 69.3 L 2228.1 76.3 Q 2218.6 76.3 2216.5 68.7 Q 2214.3 71.8 2210.35 74.4 Q 2206.4 77 2200.4 77 Q 2194 77 2188.7 73.7 A 22.692 22.692 0 0 1 2181.162 65.909 A 27.622 27.622 0 0 1 2180.3 64.35 A 27.533 27.533 0 0 1 2177.712 56.408 A 37.221 37.221 0 0 1 2177.2 50.1 A 33.94 33.94 0 0 1 2178.089 42.186 A 27.963 27.963 0 0 1 2180.35 36 A 27.291 27.291 0 0 1 2184.969 29.409 A 24.186 24.186 0 0 1 2188.75 26.2 Q 2194 22.6 2200.3 22.6 A 21.642 21.642 0 0 1 2204.572 23.002 A 15.942 15.942 0 0 1 2209.25 24.7 A 34.343 34.343 0 0 1 2211.83 26.289 Q 2213.054 27.124 2214.025 27.974 A 16.59 16.59 0 0 1 2215.1 29 Z M 3491.8 29 L 3491.8 1.8 L 3500.8 1.8 L 3500.8 63.2 A 12.15 12.15 0 0 0 3500.902 64.836 Q 3501.234 67.27 3502.65 68.15 Q 3504.5 69.3 3506.7 69.3 L 3504.8 76.3 Q 3495.3 76.3 3493.2 68.7 Q 3491 71.8 3487.05 74.4 Q 3483.1 77 3477.1 77 Q 3470.7 77 3465.4 73.7 A 22.692 22.692 0 0 1 3457.862 65.909 A 27.622 27.622 0 0 1 3457 64.35 A 27.533 27.533 0 0 1 3454.412 56.408 A 37.221 37.221 0 0 1 3453.9 50.1 A 33.94 33.94 0 0 1 3454.789 42.186 A 27.963 27.963 0 0 1 3457.05 36 A 27.291 27.291 0 0 1 3461.669 29.409 A 24.186 24.186 0 0 1 3465.45 26.2 Q 3470.7 22.6 3477 22.6 A 21.642 21.642 0 0 1 3481.272 23.002 A 15.942 15.942 0 0 1 3485.95 24.7 A 34.343 34.343 0 0 1 3488.53 26.289 Q 3489.754 27.124 3490.725 27.974 A 16.59 16.59 0 0 1 3491.8 29 Z M 1994.7 97.8 L 1985.7 97.8 L 1985.7 37.1 A 11.015 11.015 0 0 0 1985.573 35.364 Q 1985.242 33.298 1984.05 32.25 A 5.718 5.718 0 0 0 1981.26 30.928 A 7.991 7.991 0 0 0 1979.8 30.8 L 1981.7 23.8 Q 1987.562 23.8 1990.622 26.764 A 10.15 10.15 0 0 1 1993.2 31.1 Q 1994.155 29.667 1996.252 27.777 A 38.58 38.58 0 0 1 1996.45 27.6 A 18.902 18.902 0 0 1 1999.151 25.616 A 25.569 25.569 0 0 1 2002.05 24.1 A 16.955 16.955 0 0 1 2006.609 22.811 A 21.886 21.886 0 0 1 2009.7 22.6 Q 2015.7 22.6 2020.95 25.75 A 22.329 22.329 0 0 1 2028.128 32.717 A 27.464 27.464 0 0 1 2029.4 34.85 Q 2032.6 40.8 2032.6 49.3 Q 2032.6 57.6 2029.4 63.85 A 27.846 27.846 0 0 1 2025.466 69.682 A 23.029 23.029 0 0 1 2021.05 73.55 Q 2015.9 77 2009.9 77 Q 2005.3 77 2001.3 75.15 A 30.352 30.352 0 0 1 1997.884 73.311 Q 1996.091 72.184 1994.7 70.9 L 1994.7 97.8 Z M 3054 71.5 L 3054 75.8 L 3045.6 75.8 L 3045.6 1.8 L 3054.6 1.8 L 3054.6 29.2 Q 3056.6 26.9 3060.45 24.75 A 16.584 16.584 0 0 1 3065.681 22.928 A 22.424 22.424 0 0 1 3069.6 22.6 Q 3075.6 22.6 3080.85 25.75 A 22.329 22.329 0 0 1 3088.028 32.717 A 27.464 27.464 0 0 1 3089.3 34.85 Q 3092.5 40.8 3092.5 49.3 A 33.315 33.315 0 0 1 3091.813 56.188 A 27.75 27.75 0 0 1 3090.5 60.6 A 29.367 29.367 0 0 1 3087.339 66.604 A 25.482 25.482 0 0 1 3085.15 69.35 A 24.894 24.894 0 0 1 3079.019 74.264 A 23.302 23.302 0 0 1 3077.6 75 A 20.006 20.006 0 0 1 3070.234 76.96 A 19.209 19.209 0 0 1 3069 77 Q 3064.5 77 3060.55 75.35 A 30.274 30.274 0 0 1 3057.247 73.742 Q 3055.422 72.703 3054 71.5 Z M 3113.4 71.5 L 3113.4 75.8 L 3105 75.8 L 3105 1.8 L 3114 1.8 L 3114 29.2 Q 3116 26.9 3119.85 24.75 A 16.584 16.584 0 0 1 3125.081 22.928 A 22.424 22.424 0 0 1 3129 22.6 Q 3135 22.6 3140.25 25.75 A 22.329 22.329 0 0 1 3147.428 32.717 A 27.464 27.464 0 0 1 3148.7 34.85 Q 3151.9 40.8 3151.9 49.3 A 33.315 33.315 0 0 1 3151.213 56.188 A 27.75 27.75 0 0 1 3149.9 60.6 A 29.367 29.367 0 0 1 3146.739 66.604 A 25.482 25.482 0 0 1 3144.55 69.35 A 24.894 24.894 0 0 1 3138.419 74.264 A 23.302 23.302 0 0 1 3137 75 A 20.006 20.006 0 0 1 3129.634 76.96 A 19.209 19.209 0 0 1 3128.4 77 Q 3123.9 77 3119.95 75.35 A 30.274 30.274 0 0 1 3116.647 73.742 Q 3114.822 72.703 3113.4 71.5 Z M 1817.7 97.8 L 1808.7 97.8 L 1808.7 70.5 A 18.787 18.787 0 0 1 1806.732 72.271 Q 1805.702 73.082 1804.443 73.887 A 38.726 38.726 0 0 1 1802.85 74.85 A 16.11 16.11 0 0 1 1797.103 76.79 A 20.808 20.808 0 0 1 1794.1 77 Q 1788.1 77 1782.75 73.9 A 22.135 22.135 0 0 1 1775.525 67.086 A 27.627 27.627 0 0 1 1774.1 64.75 A 25.862 25.862 0 0 1 1771.525 57.574 Q 1770.891 54.515 1770.811 51.01 A 44.665 44.665 0 0 1 1770.8 50 A 34.586 34.586 0 0 1 1771.525 42.763 A 26.802 26.802 0 0 1 1774.1 35.65 A 26.084 26.084 0 0 1 1779.379 28.741 A 23.925 23.925 0 0 1 1782.9 26.05 Q 1788.4 22.6 1795 22.6 A 22.584 22.584 0 0 1 1799.794 23.09 A 18.703 18.703 0 0 1 1803.15 24.15 A 26.002 26.002 0 0 1 1807.437 26.444 A 22.103 22.103 0 0 1 1809.5 28 L 1809.5 23.8 L 1817.7 23.8 L 1817.7 97.8 Z M 185.9 53.5 L 149.5 53.5 A 24.088 24.088 0 0 0 150.639 58.525 Q 151.975 62.338 154.6 64.9 Q 158.8 69 165.7 69 Q 170.2 69 173.8 68.05 Q 177.4 67.1 180.7 65.6 L 182.8 73.3 A 40.77 40.77 0 0 1 178.465 74.926 A 51.863 51.863 0 0 1 174.7 75.95 A 38.914 38.914 0 0 1 169.608 76.769 A 52.025 52.025 0 0 1 164.6 77 A 28.318 28.318 0 0 1 156.854 75.995 A 21.108 21.108 0 0 1 146.85 69.85 A 23.521 23.521 0 0 1 141.645 60.31 Q 140.3 55.645 140.3 49.8 A 35.359 35.359 0 0 1 141.133 41.978 A 28.84 28.84 0 0 1 143.25 35.85 A 24.642 24.642 0 0 1 148.266 28.768 A 22.887 22.887 0 0 1 151.5 26.15 A 21.048 21.048 0 0 1 161.759 22.678 A 26.205 26.205 0 0 1 163.8 22.6 Q 171.3 22.6 176.25 25.85 Q 181.2 29.1 183.7 34.6 A 28.185 28.185 0 0 1 186.126 44.464 A 33.434 33.434 0 0 1 186.2 46.7 A 75.204 75.204 0 0 1 185.909 53.397 A 69.426 69.426 0 0 1 185.9 53.5 Z M 453.1 53.5 L 416.7 53.5 A 24.088 24.088 0 0 0 417.839 58.525 Q 419.175 62.338 421.8 64.9 Q 426 69 432.9 69 Q 437.4 69 441 68.05 Q 444.6 67.1 447.9 65.6 L 450 73.3 A 40.77 40.77 0 0 1 445.665 74.926 A 51.863 51.863 0 0 1 441.9 75.95 A 38.914 38.914 0 0 1 436.808 76.769 A 52.025 52.025 0 0 1 431.8 77 A 28.318 28.318 0 0 1 424.054 75.995 A 21.108 21.108 0 0 1 414.05 69.85 A 23.521 23.521 0 0 1 408.845 60.31 Q 407.5 55.645 407.5 49.8 A 35.359 35.359 0 0 1 408.333 41.978 A 28.84 28.84 0 0 1 410.45 35.85 A 24.642 24.642 0 0 1 415.466 28.768 A 22.887 22.887 0 0 1 418.7 26.15 A 21.048 21.048 0 0 1 428.959 22.678 A 26.205 26.205 0 0 1 431 22.6 Q 438.5 22.6 443.45 25.85 Q 448.4 29.1 450.9 34.6 A 28.185 28.185 0 0 1 453.326 44.464 A 33.434 33.434 0 0 1 453.4 46.7 A 75.204 75.204 0 0 1 453.109 53.397 A 69.426 69.426 0 0 1 453.1 53.5 Z M 1762 53.5 L 1725.6 53.5 A 24.088 24.088 0 0 0 1726.739 58.525 Q 1728.075 62.338 1730.7 64.9 Q 1734.9 69 1741.8 69 Q 1746.3 69 1749.9 68.05 Q 1753.5 67.1 1756.8 65.6 L 1758.9 73.3 A 40.77 40.77 0 0 1 1754.565 74.926 A 51.863 51.863 0 0 1 1750.8 75.95 A 38.914 38.914 0 0 1 1745.708 76.769 A 52.025 52.025 0 0 1 1740.7 77 A 28.318 28.318 0 0 1 1732.954 75.995 A 21.108 21.108 0 0 1 1722.95 69.85 A 23.521 23.521 0 0 1 1717.745 60.31 Q 1716.4 55.645 1716.4 49.8 A 35.359 35.359 0 0 1 1717.233 41.978 A 28.84 28.84 0 0 1 1719.35 35.85 A 24.642 24.642 0 0 1 1724.366 28.768 A 22.887 22.887 0 0 1 1727.6 26.15 A 21.048 21.048 0 0 1 1737.859 22.678 A 26.205 26.205 0 0 1 1739.9 22.6 Q 1747.4 22.6 1752.35 25.85 Q 1757.3 29.1 1759.8 34.6 A 28.185 28.185 0 0 1 1762.226 44.464 A 33.434 33.434 0 0 1 1762.3 46.7 A 75.204 75.204 0 0 1 1762.009 53.397 A 69.426 69.426 0 0 1 1762 53.5 Z M 3607.6 53.5 L 3571.2 53.5 A 24.088 24.088 0 0 0 3572.339 58.525 Q 3573.675 62.338 3576.3 64.9 Q 3580.5 69 3587.4 69 Q 3591.9 69 3595.5 68.05 Q 3599.1 67.1 3602.4 65.6 L 3604.5 73.3 A 40.77 40.77 0 0 1 3600.165 74.926 A 51.863 51.863 0 0 1 3596.4 75.95 A 38.914 38.914 0 0 1 3591.308 76.769 A 52.025 52.025 0 0 1 3586.3 77 A 28.318 28.318 0 0 1 3578.554 75.995 A 21.108 21.108 0 0 1 3568.55 69.85 A 23.521 23.521 0 0 1 3563.345 60.31 Q 3562 55.645 3562 49.8 A 35.359 35.359 0 0 1 3562.833 41.978 A 28.84 28.84 0 0 1 3564.95 35.85 A 24.642 24.642 0 0 1 3569.966 28.768 A 22.887 22.887 0 0 1 3573.2 26.15 A 21.048 21.048 0 0 1 3583.459 22.678 A 26.205 26.205 0 0 1 3585.5 22.6 Q 3593 22.6 3597.95 25.85 Q 3602.9 29.1 3605.4 34.6 A 28.185 28.185 0 0 1 3607.826 44.464 A 33.434 33.434 0 0 1 3607.9 46.7 A 75.204 75.204 0 0 1 3607.609 53.397 A 69.426 69.426 0 0 1 3607.6 53.5 Z M 3762.5 87.6 L 3762.5 81.9 A 21.303 21.303 0 0 0 3765.132 81.105 Q 3767.144 80.344 3768.55 79.25 Q 3770.677 77.596 3771.687 74.378 A 15.282 15.282 0 0 0 3771.8 74 A 21.186 21.186 0 0 0 3772.349 71.423 Q 3772.77 68.693 3772.798 64.939 A 72.312 72.312 0 0 0 3772.8 64.4 A 82.959 82.959 0 0 1 3772.897 60.247 Q 3773.098 56.245 3773.718 53.536 A 20.307 20.307 0 0 1 3773.9 52.8 A 15.314 15.314 0 0 1 3774.846 50.183 Q 3775.879 48.014 3777.5 46.75 A 13.349 13.349 0 0 1 3780.013 45.226 Q 3781.838 44.363 3784.2 43.8 Q 3780.861 43.005 3778.597 41.61 A 12.11 12.11 0 0 1 3777.5 40.85 Q 3775.352 39.174 3774.237 35.874 A 17.638 17.638 0 0 1 3773.9 34.75 Q 3772.906 31.001 3772.81 24.6 A 93.354 93.354 0 0 1 3772.8 23.2 Q 3772.8 17.1 3771.8 13.6 A 12.893 12.893 0 0 0 3770.874 11.221 Q 3770.136 9.791 3769.081 8.803 A 7.633 7.633 0 0 0 3768.55 8.35 Q 3766.3 6.6 3762.5 5.7 L 3762.5 0 Q 3769 0.6 3773.2 3 A 14.115 14.115 0 0 1 3778.738 8.83 A 18.143 18.143 0 0 1 3779.45 10.35 A 23.078 23.078 0 0 1 3780.679 14.437 Q 3781.5 18.348 3781.5 23.6 Q 3781.5 29.7 3782.3 33.25 Q 3782.892 35.879 3784.198 37.466 A 6.484 6.484 0 0 0 3785.2 38.45 A 8.776 8.776 0 0 0 3787.319 39.656 Q 3788.933 40.315 3791.1 40.6 L 3791.1 47 A 17.55 17.55 0 0 0 3788.701 47.476 Q 3787.509 47.807 3786.55 48.295 A 8.205 8.205 0 0 0 3785.2 49.15 A 7.069 7.069 0 0 0 3783.38 51.343 Q 3782.863 52.284 3782.516 53.467 A 14.206 14.206 0 0 0 3782.3 54.3 Q 3781.577 57.462 3781.507 62.826 A 90.153 90.153 0 0 0 3781.5 64 A 53.658 53.658 0 0 1 3781.269 69.148 Q 3780.811 73.88 3779.45 77.2 A 16.334 16.334 0 0 1 3777.008 81.375 A 13.585 13.585 0 0 1 3773.2 84.6 Q 3769.646 86.631 3764.445 87.373 A 39.449 39.449 0 0 1 3762.5 87.6 Z M 28.6 81.9 L 28.6 87.6 A 34.552 34.552 0 0 1 23.841 86.836 Q 21.34 86.242 19.277 85.281 A 19.046 19.046 0 0 1 17.95 84.6 A 14.04 14.04 0 0 1 12.344 78.699 A 18.102 18.102 0 0 1 11.65 77.2 A 23.74 23.74 0 0 1 10.401 73 Q 9.95 70.82 9.753 68.245 A 55.737 55.737 0 0 1 9.6 64 A 77.857 77.857 0 0 0 9.523 60.41 Q 9.37 57.103 8.912 54.823 A 20.09 20.09 0 0 0 8.8 54.3 A 12.402 12.402 0 0 0 8.098 52.115 Q 7.279 50.234 5.9 49.15 A 8.776 8.776 0 0 0 3.781 47.944 Q 2.167 47.285 0 47 L 0 40.6 A 17.55 17.55 0 0 0 2.399 40.124 Q 3.591 39.793 4.55 39.305 A 8.205 8.205 0 0 0 5.9 38.45 Q 7.672 37.058 8.518 34.313 A 14.208 14.208 0 0 0 8.8 33.25 Q 9.6 29.7 9.6 23.6 A 54.842 54.842 0 0 1 9.821 18.514 Q 10.273 13.676 11.65 10.35 Q 13.7 5.4 17.95 3 Q 21.636 0.919 26.938 0.191 A 39.011 39.011 0 0 1 28.6 0 L 28.6 5.7 Q 24.9 6.6 22.6 8.35 A 8.36 8.36 0 0 0 20.375 10.958 Q 19.783 12.014 19.381 13.326 A 14.985 14.985 0 0 0 19.3 13.6 A 21.186 21.186 0 0 0 18.751 16.177 Q 18.33 18.907 18.302 22.661 A 72.312 72.312 0 0 0 18.3 23.2 A 80.646 80.646 0 0 1 18.195 27.458 Q 17.985 31.414 17.355 34.127 A 20.901 20.901 0 0 1 17.2 34.75 A 15.6 15.6 0 0 1 16.278 37.343 Q 15.63 38.735 14.746 39.757 A 8.11 8.11 0 0 1 13.6 40.85 A 13.349 13.349 0 0 1 11.087 42.374 Q 9.263 43.238 6.9 43.8 Q 10.239 44.595 12.503 45.99 A 12.11 12.11 0 0 1 13.6 46.75 A 8.884 8.884 0 0 1 15.799 49.321 Q 16.665 50.806 17.2 52.8 Q 18.194 56.504 18.29 62.982 A 95.693 95.693 0 0 1 18.3 64.4 Q 18.3 70.5 19.3 74 A 12.575 12.575 0 0 0 20.233 76.379 Q 21.163 78.156 22.6 79.25 Q 24.9 81 28.6 81.9 Z M 2127.6 75.8 L 2118.2 75.8 L 2097.3 26.2 L 2105.5 22.8 L 2123.2 65.6 L 2140.9 22.8 L 2148.6 26.2 L 2127.6 75.8 Z M 671.2 57.9 L 671.2 33.5 L 662.2 33.5 L 662.2 25.7 L 671.4 25.7 L 673.3 9.3 L 680.2 9.3 L 680.2 25.7 L 694.6 25.7 L 694.6 33.5 L 680.2 33.5 L 680.2 58.6 A 21.559 21.559 0 0 0 680.368 61.396 Q 680.841 65.002 682.65 66.7 Q 685.1 69 688.5 69 Q 691 69 693.25 68.2 Q 695.5 67.4 697.4 66.3 L 699.9 73.5 A 18.546 18.546 0 0 1 698.282 74.356 Q 697.48 74.735 696.534 75.108 A 43.365 43.365 0 0 1 694.5 75.85 Q 691.1 77 687.4 77 Q 679.9 77 675.55 72.05 A 16.116 16.116 0 0 1 672.322 66.148 Q 671.559 63.717 671.315 60.78 A 34.777 34.777 0 0 1 671.2 57.9 Z M 1016.1 57.9 L 1016.1 33.5 L 1007.1 33.5 L 1007.1 25.7 L 1016.3 25.7 L 1018.2 9.3 L 1025.1 9.3 L 1025.1 25.7 L 1039.5 25.7 L 1039.5 33.5 L 1025.1 33.5 L 1025.1 58.6 A 21.559 21.559 0 0 0 1025.268 61.396 Q 1025.741 65.002 1027.55 66.7 Q 1030 69 1033.4 69 Q 1035.9 69 1038.15 68.2 Q 1040.4 67.4 1042.3 66.3 L 1044.8 73.5 A 18.546 18.546 0 0 1 1043.182 74.356 Q 1042.38 74.735 1041.434 75.108 A 43.365 43.365 0 0 1 1039.4 75.85 Q 1036 77 1032.3 77 Q 1024.8 77 1020.45 72.05 A 16.116 16.116 0 0 1 1017.222 66.148 Q 1016.459 63.717 1016.215 60.78 A 34.777 34.777 0 0 1 1016.1 57.9 Z M 2470.7 57.9 L 2470.7 33.5 L 2461.7 33.5 L 2461.7 25.7 L 2470.9 25.7 L 2472.8 9.3 L 2479.7 9.3 L 2479.7 25.7 L 2494.1 25.7 L 2494.1 33.5 L 2479.7 33.5 L 2479.7 58.6 A 21.559 21.559 0 0 0 2479.868 61.396 Q 2480.341 65.002 2482.15 66.7 Q 2484.6 69 2488 69 Q 2490.5 69 2492.75 68.2 Q 2495 67.4 2496.9 66.3 L 2499.4 73.5 A 18.546 18.546 0 0 1 2497.782 74.356 Q 2496.98 74.735 2496.034 75.108 A 43.365 43.365 0 0 1 2494 75.85 Q 2490.6 77 2486.9 77 Q 2479.4 77 2475.05 72.05 A 16.116 16.116 0 0 1 2471.822 66.148 Q 2471.059 63.717 2470.815 60.78 A 34.777 34.777 0 0 1 2470.7 57.9 Z M 3166.4 57.9 L 3166.4 33.5 L 3157.4 33.5 L 3157.4 25.7 L 3166.6 25.7 L 3168.5 9.3 L 3175.4 9.3 L 3175.4 25.7 L 3189.8 25.7 L 3189.8 33.5 L 3175.4 33.5 L 3175.4 58.6 A 21.559 21.559 0 0 0 3175.568 61.396 Q 3176.041 65.002 3177.85 66.7 Q 3180.3 69 3183.7 69 Q 3186.2 69 3188.45 68.2 Q 3190.7 67.4 3192.6 66.3 L 3195.1 73.5 A 18.546 18.546 0 0 1 3193.482 74.356 Q 3192.68 74.735 3191.734 75.108 A 43.365 43.365 0 0 1 3189.7 75.85 Q 3186.3 77 3182.6 77 Q 3175.1 77 3170.75 72.05 A 16.116 16.116 0 0 1 3167.522 66.148 Q 3166.759 63.717 3166.515 60.78 A 34.777 34.777 0 0 1 3166.4 57.9 Z M 3326.7 57.9 L 3326.7 33.5 L 3317.7 33.5 L 3317.7 25.7 L 3326.9 25.7 L 3328.8 9.3 L 3335.7 9.3 L 3335.7 25.7 L 3350.1 25.7 L 3350.1 33.5 L 3335.7 33.5 L 3335.7 58.6 A 21.559 21.559 0 0 0 3335.868 61.396 Q 3336.341 65.002 3338.15 66.7 Q 3340.6 69 3344 69 Q 3346.5 69 3348.75 68.2 Q 3351 67.4 3352.9 66.3 L 3355.4 73.5 A 18.546 18.546 0 0 1 3353.782 74.356 Q 3352.98 74.735 3352.034 75.108 A 43.365 43.365 0 0 1 3350 75.85 Q 3346.6 77 3342.9 77 Q 3335.4 77 3331.05 72.05 A 16.116 16.116 0 0 1 3327.822 66.148 Q 3327.059 63.717 3326.815 60.78 A 34.777 34.777 0 0 1 3326.7 57.9 Z M 1206.2 25.7 L 1203.5 33.3 A 30.422 30.422 0 0 0 1200.596 32.024 A 23.42 23.42 0 0 0 1198.15 31.25 A 20.543 20.543 0 0 0 1195.107 30.724 A 26.355 26.355 0 0 0 1192.5 30.6 A 15.889 15.889 0 0 0 1185.247 32.243 A 16.132 16.132 0 0 0 1180.75 35.65 Q 1176 40.7 1176 49.6 A 25.192 25.192 0 0 0 1176.705 55.66 A 21.45 21.45 0 0 0 1178 59.4 A 18.564 18.564 0 0 0 1180.91 63.977 A 16.275 16.275 0 0 0 1183.55 66.4 Q 1187.1 69 1191.9 69 Q 1195.065 69 1197.468 68.41 A 15.08 15.08 0 0 0 1198.4 68.15 Q 1201.089 67.303 1204.176 65.712 A 49.095 49.095 0 0 0 1204.2 65.7 L 1207 73.3 Q 1203.9 75 1200.05 76 Q 1196.2 77 1191.3 77 A 26.803 26.803 0 0 1 1184.261 76.11 A 22.074 22.074 0 0 1 1178.35 73.55 Q 1172.8 70.1 1169.8 63.95 Q 1166.8 57.8 1166.8 49.8 Q 1166.8 42.3 1169.85 36.1 Q 1172.9 29.9 1178.6 26.25 A 23.067 23.067 0 0 1 1188.268 22.829 A 29.608 29.608 0 0 1 1192 22.6 Q 1196.4 22.6 1199.75 23.4 Q 1203.1 24.2 1206.2 25.7 Z M 327.4 28 L 327.4 23.8 L 335.6 23.8 L 335.6 63.2 A 12.15 12.15 0 0 0 335.702 64.836 Q 336.034 67.27 337.45 68.15 Q 339.3 69.3 341.5 69.3 L 339.6 76.3 A 17.722 17.722 0 0 1 335.335 75.828 Q 329.698 74.428 328.103 68.88 A 13.59 13.59 0 0 1 328 68.5 A 21.307 21.307 0 0 1 324.89 71.926 A 28.498 28.498 0 0 1 321.75 74.35 Q 317.8 77 311.7 77 Q 305.2 77 299.9 73.7 A 22.947 22.947 0 0 1 292.487 66.173 A 27.923 27.923 0 0 1 291.45 64.35 A 27.228 27.228 0 0 1 288.82 56.408 A 36.644 36.644 0 0 1 288.3 50.1 A 33.142 33.142 0 0 1 289.297 41.831 A 27.968 27.968 0 0 1 291.45 36.1 Q 294.6 29.9 300.15 26.25 A 22.297 22.297 0 0 1 311.345 22.644 A 27.388 27.388 0 0 1 312.9 22.6 A 22.584 22.584 0 0 1 317.694 23.09 A 18.703 18.703 0 0 1 321.05 24.15 A 26.002 26.002 0 0 1 325.337 26.444 A 22.103 22.103 0 0 1 327.4 28 Z M 853.7 28 L 853.7 23.8 L 861.9 23.8 L 861.9 63.2 A 12.15 12.15 0 0 0 862.002 64.836 Q 862.334 67.27 863.75 68.15 Q 865.6 69.3 867.8 69.3 L 865.9 76.3 A 17.722 17.722 0 0 1 861.635 75.828 Q 855.998 74.428 854.403 68.88 A 13.59 13.59 0 0 1 854.3 68.5 A 21.307 21.307 0 0 1 851.19 71.926 A 28.498 28.498 0 0 1 848.05 74.35 Q 844.1 77 838 77 Q 831.5 77 826.2 73.7 A 22.947 22.947 0 0 1 818.787 66.173 A 27.923 27.923 0 0 1 817.75 64.35 A 27.228 27.228 0 0 1 815.12 56.408 A 36.644 36.644 0 0 1 814.6 50.1 A 33.142 33.142 0 0 1 815.597 41.831 A 27.968 27.968 0 0 1 817.75 36.1 Q 820.9 29.9 826.45 26.25 A 22.297 22.297 0 0 1 837.645 22.644 A 27.388 27.388 0 0 1 839.2 22.6 A 22.584 22.584 0 0 1 843.994 23.09 A 18.703 18.703 0 0 1 847.35 24.15 A 26.002 26.002 0 0 1 851.637 26.444 A 22.103 22.103 0 0 1 853.7 28 Z M 2442.6 28 L 2442.6 23.8 L 2450.8 23.8 L 2450.8 63.2 A 12.15 12.15 0 0 0 2450.902 64.836 Q 2451.234 67.27 2452.65 68.15 Q 2454.5 69.3 2456.7 69.3 L 2454.8 76.3 A 17.722 17.722 0 0 1 2450.535 75.828 Q 2444.898 74.428 2443.303 68.88 A 13.59 13.59 0 0 1 2443.2 68.5 A 21.307 21.307 0 0 1 2440.09 71.926 A 28.498 28.498 0 0 1 2436.95 74.35 Q 2433 77 2426.9 77 Q 2420.4 77 2415.1 73.7 A 22.947 22.947 0 0 1 2407.687 66.173 A 27.923 27.923 0 0 1 2406.65 64.35 A 27.228 27.228 0 0 1 2404.02 56.408 A 36.644 36.644 0 0 1 2403.5 50.1 A 33.142 33.142 0 0 1 2404.497 41.831 A 27.968 27.968 0 0 1 2406.65 36.1 Q 2409.8 29.9 2415.35 26.25 A 22.297 22.297 0 0 1 2426.545 22.644 A 27.388 27.388 0 0 1 2428.1 22.6 A 22.584 22.584 0 0 1 2432.894 23.09 A 18.703 18.703 0 0 1 2436.25 24.15 A 26.002 26.002 0 0 1 2440.537 26.444 A 22.103 22.103 0 0 1 2442.6 28 Z M 2960.3 28 L 2960.3 23.8 L 2968.5 23.8 L 2968.5 63.2 A 12.15 12.15 0 0 0 2968.602 64.836 Q 2968.934 67.27 2970.35 68.15 Q 2972.2 69.3 2974.4 69.3 L 2972.5 76.3 A 17.722 17.722 0 0 1 2968.235 75.828 Q 2962.598 74.428 2961.003 68.88 A 13.59 13.59 0 0 1 2960.9 68.5 A 21.307 21.307 0 0 1 2957.79 71.926 A 28.498 28.498 0 0 1 2954.65 74.35 Q 2950.7 77 2944.6 77 Q 2938.1 77 2932.8 73.7 A 22.947 22.947 0 0 1 2925.387 66.173 A 27.923 27.923 0 0 1 2924.35 64.35 A 27.228 27.228 0 0 1 2921.72 56.408 A 36.644 36.644 0 0 1 2921.2 50.1 A 33.142 33.142 0 0 1 2922.197 41.831 A 27.968 27.968 0 0 1 2924.35 36.1 Q 2927.5 29.9 2933.05 26.25 A 22.297 22.297 0 0 1 2944.245 22.644 A 27.388 27.388 0 0 1 2945.8 22.6 A 22.584 22.584 0 0 1 2950.594 23.09 A 18.703 18.703 0 0 1 2953.95 24.15 A 26.002 26.002 0 0 1 2958.237 26.444 A 22.103 22.103 0 0 1 2960.3 28 Z M 3398 28 L 3398 23.8 L 3406.2 23.8 L 3406.2 63.2 A 12.15 12.15 0 0 0 3406.302 64.836 Q 3406.634 67.27 3408.05 68.15 Q 3409.9 69.3 3412.1 69.3 L 3410.2 76.3 A 17.722 17.722 0 0 1 3405.935 75.828 Q 3400.298 74.428 3398.703 68.88 A 13.59 13.59 0 0 1 3398.6 68.5 A 21.307 21.307 0 0 1 3395.49 71.926 A 28.498 28.498 0 0 1 3392.35 74.35 Q 3388.4 77 3382.3 77 Q 3375.8 77 3370.5 73.7 A 22.947 22.947 0 0 1 3363.087 66.173 A 27.923 27.923 0 0 1 3362.05 64.35 A 27.228 27.228 0 0 1 3359.42 56.408 A 36.644 36.644 0 0 1 3358.9 50.1 A 33.142 33.142 0 0 1 3359.897 41.831 A 27.968 27.968 0 0 1 3362.05 36.1 Q 3365.2 29.9 3370.75 26.25 A 22.297 22.297 0 0 1 3381.945 22.644 A 27.388 27.388 0 0 1 3383.5 22.6 A 22.584 22.584 0 0 1 3388.294 23.09 A 18.703 18.703 0 0 1 3391.65 24.15 A 26.002 26.002 0 0 1 3395.937 26.444 A 22.103 22.103 0 0 1 3398 28 Z M 568.1 96.7 L 570.3 89.2 Q 571.503 89.94 573.177 90.509 A 20.464 20.464 0 0 0 573.45 90.6 Q 575.3 91.2 577.2 91.2 Q 584.873 91.2 585.62 82.562 A 22.819 22.819 0 0 0 585.7 80.6 L 585.7 23.8 L 594.7 23.8 L 594.7 81.5 A 27.744 27.744 0 0 1 594.416 85.594 Q 594.091 87.765 593.396 89.558 A 14.026 14.026 0 0 1 592.5 91.45 A 14.572 14.572 0 0 1 589.262 95.4 A 13.375 13.375 0 0 1 586.6 97.15 A 17.63 17.63 0 0 1 580.269 98.911 A 21.513 21.513 0 0 1 578.3 99 Q 572.2 99 568.1 96.7 Z M 1489.9 96.7 L 1492.1 89.2 Q 1493.303 89.94 1494.977 90.509 A 20.464 20.464 0 0 0 1495.25 90.6 Q 1497.1 91.2 1499 91.2 Q 1506.673 91.2 1507.42 82.562 A 22.819 22.819 0 0 0 1507.5 80.6 L 1507.5 23.8 L 1516.5 23.8 L 1516.5 81.5 A 27.744 27.744 0 0 1 1516.216 85.594 Q 1515.891 87.765 1515.196 89.558 A 14.026 14.026 0 0 1 1514.3 91.45 A 14.572 14.572 0 0 1 1511.062 95.4 A 13.375 13.375 0 0 1 1508.4 97.15 A 17.63 17.63 0 0 1 1502.069 98.911 A 21.513 21.513 0 0 1 1500.1 99 Q 1494 99 1489.9 96.7 Z M 2138.1 96.7 L 2140.3 89.2 Q 2141.503 89.94 2143.177 90.509 A 20.464 20.464 0 0 0 2143.45 90.6 Q 2145.3 91.2 2147.2 91.2 Q 2154.873 91.2 2155.62 82.562 A 22.819 22.819 0 0 0 2155.7 80.6 L 2155.7 23.8 L 2164.7 23.8 L 2164.7 81.5 A 27.744 27.744 0 0 1 2164.416 85.594 Q 2164.091 87.765 2163.396 89.558 A 14.026 14.026 0 0 1 2162.5 91.45 A 14.572 14.572 0 0 1 2159.262 95.4 A 13.375 13.375 0 0 1 2156.6 97.15 A 17.63 17.63 0 0 1 2150.269 98.911 A 21.513 21.513 0 0 1 2148.3 99 Q 2142.2 99 2138.1 96.7 Z M 2491.9 96.7 L 2494.1 89.2 Q 2495.303 89.94 2496.977 90.509 A 20.464 20.464 0 0 0 2497.25 90.6 Q 2499.1 91.2 2501 91.2 Q 2508.673 91.2 2509.42 82.562 A 22.819 22.819 0 0 0 2509.5 80.6 L 2509.5 23.8 L 2518.5 23.8 L 2518.5 81.5 A 27.744 27.744 0 0 1 2518.216 85.594 Q 2517.891 87.765 2517.196 89.558 A 14.026 14.026 0 0 1 2516.3 91.45 A 14.572 14.572 0 0 1 2513.062 95.4 A 13.375 13.375 0 0 1 2510.4 97.15 A 17.63 17.63 0 0 1 2504.069 98.911 A 21.513 21.513 0 0 1 2502.1 99 Q 2496 99 2491.9 96.7 Z M 2518 96.7 L 2520.2 89.2 Q 2521.403 89.94 2523.077 90.509 A 20.464 20.464 0 0 0 2523.35 90.6 Q 2525.2 91.2 2527.1 91.2 Q 2534.773 91.2 2535.52 82.562 A 22.819 22.819 0 0 0 2535.6 80.6 L 2535.6 23.8 L 2544.6 23.8 L 2544.6 81.5 A 27.744 27.744 0 0 1 2544.316 85.594 Q 2543.991 87.765 2543.296 89.558 A 14.026 14.026 0 0 1 2542.4 91.45 A 14.572 14.572 0 0 1 2539.162 95.4 A 13.375 13.375 0 0 1 2536.5 97.15 A 17.63 17.63 0 0 1 2530.169 98.911 A 21.513 21.513 0 0 1 2528.2 99 Q 2522.1 99 2518 96.7 Z M 1638 59.5 L 1638 1.8 L 1647 1.8 L 1647 58.6 A 20.644 20.644 0 0 0 1647.188 61.488 Q 1647.65 64.752 1649.25 66.6 A 7.363 7.363 0 0 0 1653.834 69.076 A 10.724 10.724 0 0 0 1655.5 69.2 Q 1657.4 69.2 1659.25 68.75 A 22.192 22.192 0 0 0 1660.713 68.344 Q 1661.648 68.047 1662.4 67.7 L 1664.6 75 Q 1663.201 75.622 1661.288 76.123 A 34.978 34.978 0 0 1 1660.15 76.4 A 23.816 23.816 0 0 1 1656.995 76.885 A 30.514 30.514 0 0 1 1654.3 77 A 20.862 20.862 0 0 1 1649.41 76.446 A 17.544 17.544 0 0 1 1646 75.25 A 12.683 12.683 0 0 1 1640.675 70.485 A 15.856 15.856 0 0 1 1640.15 69.6 Q 1638.416 66.454 1638.08 61.812 A 32.105 32.105 0 0 1 1638 59.5 Z M 1892.4 59.5 L 1892.4 1.8 L 1901.4 1.8 L 1901.4 58.6 A 20.644 20.644 0 0 0 1901.588 61.488 Q 1902.05 64.752 1903.65 66.6 A 7.363 7.363 0 0 0 1908.234 69.076 A 10.724 10.724 0 0 0 1909.9 69.2 Q 1911.8 69.2 1913.65 68.75 A 22.192 22.192 0 0 0 1915.113 68.344 Q 1916.048 68.047 1916.8 67.7 L 1919 75 Q 1917.601 75.622 1915.688 76.123 A 34.978 34.978 0 0 1 1914.55 76.4 A 23.816 23.816 0 0 1 1911.395 76.885 A 30.514 30.514 0 0 1 1908.7 77 A 20.862 20.862 0 0 1 1903.81 76.446 A 17.544 17.544 0 0 1 1900.4 75.25 A 12.683 12.683 0 0 1 1895.075 70.485 A 15.856 15.856 0 0 1 1894.55 69.6 Q 1892.816 66.454 1892.48 61.812 A 32.105 32.105 0 0 1 1892.4 59.5 Z M 2891.1 59.5 L 2891.1 1.8 L 2900.1 1.8 L 2900.1 58.6 A 20.644 20.644 0 0 0 2900.288 61.488 Q 2900.75 64.752 2902.35 66.6 A 7.363 7.363 0 0 0 2906.934 69.076 A 10.724 10.724 0 0 0 2908.6 69.2 Q 2910.5 69.2 2912.35 68.75 A 22.192 22.192 0 0 0 2913.813 68.344 Q 2914.748 68.047 2915.5 67.7 L 2917.7 75 Q 2916.301 75.622 2914.388 76.123 A 34.978 34.978 0 0 1 2913.25 76.4 A 23.816 23.816 0 0 1 2910.095 76.885 A 30.514 30.514 0 0 1 2907.4 77 A 20.862 20.862 0 0 1 2902.51 76.446 A 17.544 17.544 0 0 1 2899.1 75.25 A 12.683 12.683 0 0 1 2893.775 70.485 A 15.856 15.856 0 0 1 2893.25 69.6 Q 2891.516 66.454 2891.18 61.812 A 32.105 32.105 0 0 1 2891.1 59.5 Z M 3720.4 75.8 L 3711.4 75.8 L 3711.4 23.8 L 3720.1 23.8 L 3720.1 35.1 Q 3721.4 31.8 3723.6 28.95 Q 3725.8 26.1 3729.1 24.35 A 14.817 14.817 0 0 1 3733.78 22.826 A 19.459 19.459 0 0 1 3736.8 22.6 Q 3738.3 22.6 3739.8 22.75 A 18.972 18.972 0 0 1 3740.855 22.884 Q 3741.355 22.962 3741.782 23.062 A 8.817 8.817 0 0 1 3742.3 23.2 L 3739.6 32.5 A 9.763 9.763 0 0 0 3737.455 31.888 Q 3736.359 31.7 3735.1 31.7 A 12.958 12.958 0 0 0 3728.47 33.546 A 15.609 15.609 0 0 0 3728.05 33.8 Q 3724.722 35.886 3722.578 40.242 A 22.927 22.927 0 0 0 3722.55 40.3 Q 3720.787 43.907 3720.47 49.128 A 39.09 39.09 0 0 0 3720.4 51.5 L 3720.4 75.8 Z M 1310.5 73.55 A 24.559 24.559 0 0 0 1315.098 75.64 Q 1319.153 77 1323.8 77 Q 1331.2 77 1337.05 73.6 Q 1342.9 70.2 1346.3 64.05 A 26.255 26.255 0 0 0 1348.953 56.909 A 34.184 34.184 0 0 0 1349.7 49.6 A 34.542 34.542 0 0 0 1349.215 43.691 A 25.795 25.795 0 0 0 1346.25 35.25 Q 1342.8 29.2 1336.95 25.9 A 24.848 24.848 0 0 0 1332.309 23.873 A 27.738 27.738 0 0 0 1323.8 22.6 A 31.325 31.325 0 0 0 1322.22 22.639 A 26.169 26.169 0 0 0 1310.6 25.9 Q 1304.7 29.2 1301.3 35.3 A 26.023 26.023 0 0 0 1298.551 42.89 A 35.006 35.006 0 0 0 1297.9 49.8 A 34.82 34.82 0 0 0 1298.165 54.154 A 27.451 27.451 0 0 0 1301.25 63.95 Q 1304.6 70.1 1310.5 73.55 Z M 1587.3 73.55 A 24.559 24.559 0 0 0 1591.898 75.64 Q 1595.953 77 1600.6 77 Q 1608 77 1613.85 73.6 Q 1619.7 70.2 1623.1 64.05 A 26.255 26.255 0 0 0 1625.753 56.909 A 34.184 34.184 0 0 0 1626.5 49.6 A 34.542 34.542 0 0 0 1626.015 43.691 A 25.795 25.795 0 0 0 1623.05 35.25 Q 1619.6 29.2 1613.75 25.9 A 24.848 24.848 0 0 0 1609.109 23.873 A 27.738 27.738 0 0 0 1600.6 22.6 A 31.325 31.325 0 0 0 1599.02 22.639 A 26.169 26.169 0 0 0 1587.4 25.9 Q 1581.5 29.2 1578.1 35.3 A 26.023 26.023 0 0 0 1575.351 42.89 A 35.006 35.006 0 0 0 1574.7 49.8 A 34.82 34.82 0 0 0 1574.965 54.154 A 27.451 27.451 0 0 0 1578.05 63.95 Q 1581.4 70.1 1587.3 73.55 Z M 1934.6 73.55 A 24.559 24.559 0 0 0 1939.198 75.64 Q 1943.253 77 1947.9 77 Q 1955.3 77 1961.15 73.6 Q 1967 70.2 1970.4 64.05 A 26.255 26.255 0 0 0 1973.053 56.909 A 34.184 34.184 0 0 0 1973.8 49.6 A 34.542 34.542 0 0 0 1973.315 43.691 A 25.795 25.795 0 0 0 1970.35 35.25 Q 1966.9 29.2 1961.05 25.9 A 24.848 24.848 0 0 0 1956.409 23.873 A 27.738 27.738 0 0 0 1947.9 22.6 A 31.325 31.325 0 0 0 1946.32 22.639 A 26.169 26.169 0 0 0 1934.7 25.9 Q 1928.8 29.2 1925.4 35.3 A 26.023 26.023 0 0 0 1922.651 42.89 A 35.006 35.006 0 0 0 1922 49.8 A 34.82 34.82 0 0 0 1922.265 54.154 A 27.451 27.451 0 0 0 1925.35 63.95 Q 1928.7 70.1 1934.6 73.55 Z M 1062.8 75.8 L 1053.8 75.8 L 1053.8 23.8 L 1062.8 23.8 L 1062.8 75.8 Z M 2391 75.8 L 2382 75.8 L 2382 23.8 L 2391 23.8 L 2391 75.8 Z M 2875.6 75.8 L 2866.6 75.8 L 2866.6 23.8 L 2875.6 23.8 L 2875.6 75.8 Z M 1323.8 69 Q 1331.7 69 1336.1 63.65 A 18.802 18.802 0 0 0 1339.919 55.56 A 27.105 27.105 0 0 0 1340.5 49.8 Q 1340.5 44.6 1338.3 40.25 A 19.198 19.198 0 0 0 1334.128 34.681 A 18.17 18.17 0 0 0 1332.35 33.25 Q 1328.6 30.6 1323.8 30.6 A 19.249 19.249 0 0 0 1318.574 31.272 A 14.037 14.037 0 0 0 1311.5 35.8 A 17.878 17.878 0 0 0 1307.826 43.174 Q 1307.1 46.106 1307.1 49.6 Q 1307.1 54.8 1309.3 59.25 A 19.437 19.437 0 0 0 1312.83 64.29 A 17.627 17.627 0 0 0 1315.25 66.35 Q 1319 69 1323.8 69 Z M 1600.6 69 Q 1608.5 69 1612.9 63.65 A 18.802 18.802 0 0 0 1616.719 55.56 A 27.105 27.105 0 0 0 1617.3 49.8 Q 1617.3 44.6 1615.1 40.25 A 19.198 19.198 0 0 0 1610.928 34.681 A 18.17 18.17 0 0 0 1609.15 33.25 Q 1605.4 30.6 1600.6 30.6 A 19.249 19.249 0 0 0 1595.374 31.272 A 14.037 14.037 0 0 0 1588.3 35.8 A 17.878 17.878 0 0 0 1584.626 43.174 Q 1583.9 46.106 1583.9 49.6 Q 1583.9 54.8 1586.1 59.25 A 19.437 19.437 0 0 0 1589.63 64.29 A 17.627 17.627 0 0 0 1592.05 66.35 Q 1595.8 69 1600.6 69 Z M 1947.9 69 Q 1955.8 69 1960.2 63.65 A 18.802 18.802 0 0 0 1964.019 55.56 A 27.105 27.105 0 0 0 1964.6 49.8 Q 1964.6 44.6 1962.4 40.25 A 19.198 19.198 0 0 0 1958.228 34.681 A 18.17 18.17 0 0 0 1956.45 33.25 Q 1952.7 30.6 1947.9 30.6 A 19.249 19.249 0 0 0 1942.674 31.272 A 14.037 14.037 0 0 0 1935.6 35.8 A 17.878 17.878 0 0 0 1931.926 43.174 Q 1931.2 46.106 1931.2 49.6 Q 1931.2 54.8 1933.4 59.25 A 19.437 19.437 0 0 0 1936.93 64.29 A 17.627 17.627 0 0 0 1939.35 66.35 Q 1943.1 69 1947.9 69 Z M 326.6 62.5 L 326.6 34.6 Q 323.9 32.7 320.65 31.55 Q 317.4 30.4 313.8 30.4 A 15.924 15.924 0 0 0 308.829 31.154 A 14.024 14.024 0 0 0 305.35 32.85 A 16.301 16.301 0 0 0 300.331 38.274 A 19.962 19.962 0 0 0 299.6 39.65 A 20.663 20.663 0 0 0 297.847 45.327 A 27.678 27.678 0 0 0 297.5 49.8 Q 297.5 55.4 299.6 59.75 A 17.602 17.602 0 0 0 302.706 64.296 A 15.697 15.697 0 0 0 305.4 66.55 Q 309.1 69 313.7 69 Q 317.5 69 320.9 67.15 Q 324.3 65.3 326.6 62.5 Z M 852.9 62.5 L 852.9 34.6 Q 850.2 32.7 846.95 31.55 Q 843.7 30.4 840.1 30.4 A 15.924 15.924 0 0 0 835.129 31.154 A 14.024 14.024 0 0 0 831.65 32.85 A 16.301 16.301 0 0 0 826.631 38.274 A 19.962 19.962 0 0 0 825.9 39.65 A 20.663 20.663 0 0 0 824.147 45.327 A 27.678 27.678 0 0 0 823.8 49.8 Q 823.8 55.4 825.9 59.75 A 17.602 17.602 0 0 0 829.006 64.296 A 15.697 15.697 0 0 0 831.7 66.55 Q 835.4 69 840 69 Q 843.8 69 847.2 67.15 Q 850.6 65.3 852.9 62.5 Z M 2441.8 62.5 L 2441.8 34.6 Q 2439.1 32.7 2435.85 31.55 Q 2432.6 30.4 2429 30.4 A 15.924 15.924 0 0 0 2424.029 31.154 A 14.024 14.024 0 0 0 2420.55 32.85 A 16.301 16.301 0 0 0 2415.531 38.274 A 19.962 19.962 0 0 0 2414.8 39.65 A 20.663 20.663 0 0 0 2413.047 45.327 A 27.678 27.678 0 0 0 2412.7 49.8 Q 2412.7 55.4 2414.8 59.75 A 17.602 17.602 0 0 0 2417.906 64.296 A 15.697 15.697 0 0 0 2420.6 66.55 Q 2424.3 69 2428.9 69 Q 2432.7 69 2436.1 67.15 Q 2439.5 65.3 2441.8 62.5 Z M 2959.5 62.5 L 2959.5 34.6 Q 2956.8 32.7 2953.55 31.55 Q 2950.3 30.4 2946.7 30.4 A 15.924 15.924 0 0 0 2941.729 31.154 A 14.024 14.024 0 0 0 2938.25 32.85 A 16.301 16.301 0 0 0 2933.231 38.274 A 19.962 19.962 0 0 0 2932.5 39.65 A 20.663 20.663 0 0 0 2930.747 45.327 A 27.678 27.678 0 0 0 2930.4 49.8 Q 2930.4 55.4 2932.5 59.75 A 17.602 17.602 0 0 0 2935.606 64.296 A 15.697 15.697 0 0 0 2938.3 66.55 Q 2942 69 2946.6 69 Q 2950.4 69 2953.8 67.15 Q 2957.2 65.3 2959.5 62.5 Z M 3397.2 62.5 L 3397.2 34.6 Q 3394.5 32.7 3391.25 31.55 Q 3388 30.4 3384.4 30.4 A 15.924 15.924 0 0 0 3379.429 31.154 A 14.024 14.024 0 0 0 3375.95 32.85 A 16.301 16.301 0 0 0 3370.931 38.274 A 19.962 19.962 0 0 0 3370.2 39.65 A 20.663 20.663 0 0 0 3368.447 45.327 A 27.678 27.678 0 0 0 3368.1 49.8 Q 3368.1 55.4 3370.2 59.75 A 17.602 17.602 0 0 0 3373.306 64.296 A 15.697 15.697 0 0 0 3376 66.55 Q 3379.7 69 3384.3 69 Q 3388.1 69 3391.5 67.15 Q 3394.9 65.3 3397.2 62.5 Z M 1808.7 62.7 L 1808.7 34.6 Q 1806 32.7 1802.75 31.55 Q 1799.5 30.4 1795.9 30.4 Q 1791.6 30.4 1788 32.7 Q 1784.4 35 1782.2 39.3 A 19.204 19.204 0 0 0 1780.483 44.377 Q 1780 46.841 1780 49.7 A 26.906 26.906 0 0 0 1780.431 54.634 A 19.498 19.498 0 0 0 1782.25 60.05 A 18.255 18.255 0 0 0 1785.026 64.068 A 15.268 15.268 0 0 0 1788.2 66.7 Q 1791.9 69 1796.1 69 Q 1800.1 69 1803.4 67.1 Q 1806.7 65.2 1808.7 62.7 Z M 3054.6 37.2 L 3054.6 65 A 17.99 17.99 0 0 0 3058.23 67.185 A 21.802 21.802 0 0 0 3060 67.9 A 19.462 19.462 0 0 0 3066.164 68.996 A 22.039 22.039 0 0 0 3066.6 69 Q 3071.5 69 3075.25 66.6 Q 3079 64.2 3081.15 59.8 Q 3083.3 55.4 3083.3 49.6 Q 3083.3 43.6 3081.15 39.3 Q 3079 35 3075.45 32.7 Q 3071.9 30.4 3067.6 30.4 A 14.741 14.741 0 0 0 3061.973 31.463 A 14.054 14.054 0 0 0 3059.85 32.55 Q 3056.4 34.7 3054.6 37.2 Z M 3114 37.2 L 3114 65 A 17.99 17.99 0 0 0 3117.63 67.185 A 21.802 21.802 0 0 0 3119.4 67.9 A 19.462 19.462 0 0 0 3125.564 68.996 A 22.039 22.039 0 0 0 3126 69 Q 3130.9 69 3134.65 66.6 Q 3138.4 64.2 3140.55 59.8 Q 3142.7 55.4 3142.7 49.6 Q 3142.7 43.6 3140.55 39.3 Q 3138.4 35 3134.85 32.7 Q 3131.3 30.4 3127 30.4 A 14.741 14.741 0 0 0 3121.373 31.463 A 14.054 14.054 0 0 0 3119.25 32.55 Q 3115.8 34.7 3114 37.2 Z M 1994.7 37.2 L 1994.7 62.8 Q 1997.3 65.5 2000.7 67.25 Q 2004.1 69 2008.1 69 Q 2014.794 69 2019.017 63.816 A 17.38 17.38 0 0 0 2019.15 63.65 A 18.792 18.792 0 0 0 2022.644 56.344 Q 2023.305 53.655 2023.388 50.508 A 34.555 34.555 0 0 0 2023.4 49.6 Q 2023.4 43.6 2021.25 39.3 Q 2019.1 35 2015.55 32.7 Q 2012 30.4 2007.7 30.4 A 14.741 14.741 0 0 0 2002.073 31.463 A 14.054 14.054 0 0 0 1999.95 32.55 Q 1996.5 34.7 1994.7 37.2 Z M 2215.1 62.7 L 2215.1 36.9 A 15.847 15.847 0 0 0 2212.989 34.727 Q 2211.868 33.764 2210.469 32.866 A 28.139 28.139 0 0 0 2209.8 32.45 Q 2206.4 30.4 2202.3 30.4 A 14.946 14.946 0 0 0 2197.344 31.2 A 13.385 13.385 0 0 0 2193.9 33 A 16.69 16.69 0 0 0 2188.73 39.15 A 19.924 19.924 0 0 0 2188.35 39.95 A 22.19 22.19 0 0 0 2186.61 46.314 A 28.113 28.113 0 0 0 2186.4 49.8 A 24.757 24.757 0 0 0 2186.993 55.319 A 20.327 20.327 0 0 0 2188.5 59.65 A 18.205 18.205 0 0 0 2191.54 64.163 A 16.122 16.122 0 0 0 2194.25 66.5 Q 2197.9 69 2202.4 69 Q 2206.1 69 2209.45 67.25 Q 2212.8 65.5 2215.1 62.7 Z M 3491.8 62.7 L 3491.8 36.9 A 15.847 15.847 0 0 0 3489.689 34.727 Q 3488.568 33.764 3487.169 32.866 A 28.139 28.139 0 0 0 3486.5 32.45 Q 3483.1 30.4 3479 30.4 A 14.946 14.946 0 0 0 3474.044 31.2 A 13.385 13.385 0 0 0 3470.6 33 A 16.69 16.69 0 0 0 3465.43 39.15 A 19.924 19.924 0 0 0 3465.05 39.95 A 22.19 22.19 0 0 0 3463.31 46.314 A 28.113 28.113 0 0 0 3463.1 49.8 A 24.757 24.757 0 0 0 3463.693 55.319 A 20.327 20.327 0 0 0 3465.2 59.65 A 18.205 18.205 0 0 0 3468.24 64.163 A 16.122 16.122 0 0 0 3470.95 66.5 Q 3474.6 69 3479.1 69 Q 3482.8 69 3486.15 67.25 Q 3489.5 65.5 3491.8 62.7 Z M 386.5 61.8 L 386.5 34.6 Q 384.334 33.025 381.297 31.741 A 36.018 36.018 0 0 0 381.2 31.7 A 16.249 16.249 0 0 0 377.396 30.649 A 22.135 22.135 0 0 0 374 30.4 Q 369.9 30.4 366.3 32.6 Q 362.7 34.8 360.45 38.95 Q 358.2 43.1 358.2 49.1 A 24.32 24.32 0 0 0 358.678 54.036 A 18.311 18.311 0 0 0 360.45 59 A 18.576 18.576 0 0 0 363.361 63.075 A 15.802 15.802 0 0 0 366.3 65.5 Q 369.9 67.8 374.1 67.8 A 15.276 15.276 0 0 0 378.678 67.132 A 13.606 13.606 0 0 0 381.3 66 A 20.855 20.855 0 0 0 384.281 63.984 A 16.309 16.309 0 0 0 386.5 61.8 Z M 644.7 61.8 L 644.7 34.6 Q 642.534 33.025 639.497 31.741 A 36.018 36.018 0 0 0 639.4 31.7 A 16.249 16.249 0 0 0 635.596 30.649 A 22.135 22.135 0 0 0 632.2 30.4 Q 628.1 30.4 624.5 32.6 Q 620.9 34.8 618.65 38.95 Q 616.4 43.1 616.4 49.1 A 24.32 24.32 0 0 0 616.878 54.036 A 18.311 18.311 0 0 0 618.65 59 A 18.576 18.576 0 0 0 621.561 63.075 A 15.802 15.802 0 0 0 624.5 65.5 Q 628.1 67.8 632.3 67.8 A 15.276 15.276 0 0 0 636.878 67.132 A 13.606 13.606 0 0 0 639.5 66 A 20.855 20.855 0 0 0 642.481 63.984 A 16.309 16.309 0 0 0 644.7 61.8 Z M 149.4 46.2 L 177.9 46.2 A 24.355 24.355 0 0 0 177.496 41.615 Q 177 39.031 175.896 37.007 A 12.422 12.422 0 0 0 174.1 34.5 A 12.488 12.488 0 0 0 167.139 30.724 A 18.395 18.395 0 0 0 163.6 30.4 A 13.58 13.58 0 0 0 158.488 31.335 A 12.524 12.524 0 0 0 154 34.45 Q 150.2 38.5 149.4 46.2 Z M 416.6 46.2 L 445.1 46.2 A 24.355 24.355 0 0 0 444.696 41.615 Q 444.2 39.031 443.096 37.007 A 12.422 12.422 0 0 0 441.3 34.5 A 12.488 12.488 0 0 0 434.339 30.724 A 18.395 18.395 0 0 0 430.8 30.4 A 13.58 13.58 0 0 0 425.688 31.335 A 12.524 12.524 0 0 0 421.2 34.45 Q 417.4 38.5 416.6 46.2 Z M 1725.5 46.2 L 1754 46.2 A 24.355 24.355 0 0 0 1753.596 41.615 Q 1753.1 39.031 1751.996 37.007 A 12.422 12.422 0 0 0 1750.2 34.5 A 12.488 12.488 0 0 0 1743.239 30.724 A 18.395 18.395 0 0 0 1739.7 30.4 A 13.58 13.58 0 0 0 1734.588 31.335 A 12.524 12.524 0 0 0 1730.1 34.45 Q 1726.3 38.5 1725.5 46.2 Z M 3571.1 46.2 L 3599.6 46.2 A 24.355 24.355 0 0 0 3599.196 41.615 Q 3598.7 39.031 3597.596 37.007 A 12.422 12.422 0 0 0 3595.8 34.5 A 12.488 12.488 0 0 0 3588.839 30.724 A 18.395 18.395 0 0 0 3585.3 30.4 A 13.58 13.58 0 0 0 3580.188 31.335 A 12.524 12.524 0 0 0 3575.7 34.45 Q 3571.9 38.5 3571.1 46.2 Z M 40.4 28 L 33.3 28 L 32.5 5.8 L 41.2 5.8 L 40.4 28 Z M 468.5 28 L 461.4 28 L 460.6 5.8 L 469.3 5.8 L 468.5 28 Z M 513.5 28 L 506.4 28 L 505.6 5.8 L 514.3 5.8 L 513.5 28 Z M 3757.9 28 L 3750.8 28 L 3750 5.8 L 3758.7 5.8 L 3757.9 28 Z M 482.763 75.062 A 6.418 6.418 0 0 0 487.4 77 A 8.605 8.605 0 0 0 488.022 76.978 A 6.461 6.461 0 0 0 492.2 75.15 Q 494.1 73.3 494.1 70.3 A 6.225 6.225 0 0 0 493.521 67.629 A 6.955 6.955 0 0 0 492.05 65.6 Q 490 63.6 487.4 63.6 A 8.813 8.813 0 0 0 485.547 63.785 A 5.979 5.979 0 0 0 482.5 65.4 A 5.927 5.927 0 0 0 480.932 68.24 A 8.624 8.624 0 0 0 480.7 70.3 Q 480.7 73 482.7 75 A 8.317 8.317 0 0 0 482.763 75.062 Z M 482.763 34.062 A 6.418 6.418 0 0 0 487.4 36 A 8.605 8.605 0 0 0 488.022 35.978 A 6.461 6.461 0 0 0 492.2 34.15 Q 494.1 32.3 494.1 29.3 A 6.225 6.225 0 0 0 493.521 26.629 A 6.955 6.955 0 0 0 492.05 24.6 Q 490 22.6 487.4 22.6 A 8.813 8.813 0 0 0 485.547 22.785 A 5.979 5.979 0 0 0 482.5 24.4 A 5.927 5.927 0 0 0 480.932 27.24 A 8.624 8.624 0 0 0 480.7 29.3 Q 480.7 32 482.7 34 A 8.317 8.317 0 0 0 482.763 34.062 Z M 585.637 13.088 A 5.973 5.973 0 0 0 590 14.9 A 8.175 8.175 0 0 0 591.496 14.769 A 5.647 5.647 0 0 0 594.6 13.15 Q 596.3 11.4 596.3 8.6 A 7.26 7.26 0 0 0 596.3 8.519 A 6.06 6.06 0 0 0 594.45 4.15 A 7.395 7.395 0 0 0 594.392 4.093 A 6.059 6.059 0 0 0 590 2.3 A 8.264 8.264 0 0 0 588.344 2.458 A 5.661 5.661 0 0 0 585.4 4 A 5.588 5.588 0 0 0 583.929 6.632 A 7.987 7.987 0 0 0 583.7 8.6 A 5.992 5.992 0 0 0 584.192 11.019 A 6.643 6.643 0 0 0 585.55 13 A 7.466 7.466 0 0 0 585.637 13.088 Z M 1507.437 13.088 A 5.973 5.973 0 0 0 1511.8 14.9 A 8.175 8.175 0 0 0 1513.296 14.769 A 5.647 5.647 0 0 0 1516.4 13.15 Q 1518.1 11.4 1518.1 8.6 A 7.26 7.26 0 0 0 1518.1 8.519 A 6.06 6.06 0 0 0 1516.25 4.15 A 7.395 7.395 0 0 0 1516.192 4.093 A 6.059 6.059 0 0 0 1511.8 2.3 A 8.264 8.264 0 0 0 1510.144 2.458 A 5.661 5.661 0 0 0 1507.2 4 A 5.588 5.588 0 0 0 1505.729 6.632 A 7.987 7.987 0 0 0 1505.5 8.6 A 5.992 5.992 0 0 0 1505.992 11.019 A 6.643 6.643 0 0 0 1507.35 13 A 7.466 7.466 0 0 0 1507.437 13.088 Z M 2155.637 13.088 A 5.973 5.973 0 0 0 2160 14.9 A 8.175 8.175 0 0 0 2161.496 14.769 A 5.647 5.647 0 0 0 2164.6 13.15 Q 2166.3 11.4 2166.3 8.6 A 7.26 7.26 0 0 0 2166.3 8.519 A 6.06 6.06 0 0 0 2164.45 4.15 A 7.395 7.395 0 0 0 2164.392 4.093 A 6.059 6.059 0 0 0 2160 2.3 A 8.264 8.264 0 0 0 2158.344 2.458 A 5.661 5.661 0 0 0 2155.4 4 A 5.588 5.588 0 0 0 2153.929 6.632 A 7.987 7.987 0 0 0 2153.7 8.6 A 5.992 5.992 0 0 0 2154.192 11.019 A 6.643 6.643 0 0 0 2155.55 13 A 7.466 7.466 0 0 0 2155.637 13.088 Z M 2509.437 13.088 A 5.973 5.973 0 0 0 2513.8 14.9 A 8.175 8.175 0 0 0 2515.296 14.769 A 5.647 5.647 0 0 0 2518.4 13.15 Q 2520.1 11.4 2520.1 8.6 A 7.26 7.26 0 0 0 2520.1 8.519 A 6.06 6.06 0 0 0 2518.25 4.15 A 7.395 7.395 0 0 0 2518.192 4.093 A 6.059 6.059 0 0 0 2513.8 2.3 A 8.264 8.264 0 0 0 2512.144 2.458 A 5.661 5.661 0 0 0 2509.2 4 A 5.588 5.588 0 0 0 2507.729 6.632 A 7.987 7.987 0 0 0 2507.5 8.6 A 5.992 5.992 0 0 0 2507.992 11.019 A 6.643 6.643 0 0 0 2509.35 13 A 7.466 7.466 0 0 0 2509.437 13.088 Z M 2535.537 13.088 A 5.973 5.973 0 0 0 2539.9 14.9 A 8.175 8.175 0 0 0 2541.396 14.769 A 5.647 5.647 0 0 0 2544.5 13.15 Q 2546.2 11.4 2546.2 8.6 A 7.26 7.26 0 0 0 2546.2 8.519 A 6.06 6.06 0 0 0 2544.35 4.15 A 7.395 7.395 0 0 0 2544.292 4.093 A 6.059 6.059 0 0 0 2539.9 2.3 A 8.264 8.264 0 0 0 2538.244 2.458 A 5.661 5.661 0 0 0 2535.3 4 A 5.588 5.588 0 0 0 2533.829 6.632 A 7.987 7.987 0 0 0 2533.6 8.6 A 5.992 5.992 0 0 0 2534.092 11.019 A 6.643 6.643 0 0 0 2535.45 13 A 7.466 7.466 0 0 0 2535.537 13.088 Z M 1053.937 13.088 A 5.973 5.973 0 0 0 1058.3 14.9 A 8.175 8.175 0 0 0 1059.796 14.769 A 5.647 5.647 0 0 0 1062.9 13.15 Q 1064.6 11.4 1064.6 8.6 A 7.26 7.26 0 0 0 1064.6 8.519 A 6.06 6.06 0 0 0 1062.75 4.15 A 7.395 7.395 0 0 0 1062.692 4.093 A 6.059 6.059 0 0 0 1058.3 2.3 A 8.264 8.264 0 0 0 1056.644 2.458 A 5.661 5.661 0 0 0 1053.7 4 A 5.588 5.588 0 0 0 1052.229 6.632 A 7.987 7.987 0 0 0 1052 8.6 A 5.992 5.992 0 0 0 1052.492 11.019 A 6.643 6.643 0 0 0 1053.85 13 A 7.466 7.466 0 0 0 1053.937 13.088 Z M 2382.137 13.088 A 5.973 5.973 0 0 0 2386.5 14.9 A 8.175 8.175 0 0 0 2387.996 14.769 A 5.647 5.647 0 0 0 2391.1 13.15 Q 2392.8 11.4 2392.8 8.6 A 7.26 7.26 0 0 0 2392.8 8.519 A 6.06 6.06 0 0 0 2390.95 4.15 A 7.395 7.395 0 0 0 2390.892 4.093 A 6.059 6.059 0 0 0 2386.5 2.3 A 8.264 8.264 0 0 0 2384.844 2.458 A 5.661 5.661 0 0 0 2381.9 4 A 5.588 5.588 0 0 0 2380.429 6.632 A 7.987 7.987 0 0 0 2380.2 8.6 A 5.992 5.992 0 0 0 2380.692 11.019 A 6.643 6.643 0 0 0 2382.05 13 A 7.466 7.466 0 0 0 2382.137 13.088 Z M 2866.737 13.088 A 5.973 5.973 0 0 0 2871.1 14.9 A 8.175 8.175 0 0 0 2872.596 14.769 A 5.647 5.647 0 0 0 2875.7 13.15 Q 2877.4 11.4 2877.4 8.6 A 7.26 7.26 0 0 0 2877.4 8.519 A 6.06 6.06 0 0 0 2875.55 4.15 A 7.395 7.395 0 0 0 2875.492 4.093 A 6.059 6.059 0 0 0 2871.1 2.3 A 8.264 8.264 0 0 0 2869.444 2.458 A 5.661 5.661 0 0 0 2866.5 4 A 5.588 5.588 0 0 0 2865.029 6.632 A 7.987 7.987 0 0 0 2864.8 8.6 A 5.992 5.992 0 0 0 2865.292 11.019 A 6.643 6.643 0 0 0 2866.65 13 A 7.466 7.466 0 0 0 2866.737 13.088 Z" vector-effect="non-scaling-stroke"/></g></svg>